<?xml version="1.0" encoding="utf-8"?>
<!-- Generator: Adobe Illustrator 23.0.4, SVG Export Plug-In . SVG Version: 6.00 Build 0)  -->
<svg version="1.1" id="Capa_1" xmlns="http://www.w3.org/2000/svg" xmlns:xlink="http://www.w3.org/1999/xlink" x="0px" y="0px"
	 viewBox="0 0 159.6 17.9" style="enable-background:new 0 0 159.6 17.9;" xml:space="preserve">
<style type="text/css">
	.st0{fill:url(#SVGID_1_);}
	.st1{fill:url(#SVGID_2_);}
	.st2{fill:url(#SVGID_3_);}
	.st3{fill:url(#SVGID_4_);}
	.st4{fill:url(#SVGID_5_);}
	.st5{fill:url(#SVGID_6_);}
	.st6{fill:url(#SVGID_7_);}
	.st7{fill:url(#SVGID_8_);}
	.st8{fill:url(#SVGID_9_);}
	.st9{fill:url(#SVGID_10_);}
</style>
<title>arabesco dorado</title>
<g>
	<linearGradient id="SVGID_1_" gradientUnits="userSpaceOnUse" x1="-124.538" y1="7.5706" x2="149.784" y2="7.5706">
		<stop  offset="0" style="stop-color:#987E24"/>
		<stop  offset="0.25" style="stop-color:#AC9442"/>
		<stop  offset="0.56" style="stop-color:#C0A961"/>
		<stop  offset="0.82" style="stop-color:#CCB673"/>
		<stop  offset="1" style="stop-color:#D0BB7A"/>
		<stop  offset="1" style="stop-color:#AD8024"/>
		<stop  offset="1" style="stop-color:#CDB671"/>
		<stop  offset="1" style="stop-color:#CBB470"/>
		<stop  offset="1" style="stop-color:#C4AE6E"/>
		<stop  offset="1" style="stop-color:#B8A26B"/>
		<stop  offset="1" style="stop-color:#A89166"/>
		<stop  offset="1" style="stop-color:#927C5F"/>
		<stop  offset="1" style="stop-color:#766157"/>
		<stop  offset="1" style="stop-color:#57434E"/>
		<stop  offset="1" style="stop-color:#513D4C"/>
	</linearGradient>
	<path class="st0" d="M2.4,3.6C1.5,3.6,0.6,4.1,0.3,5C0,6-0.1,7,0.1,8C0.2,8.9,0.5,9.7,1,10.4c2,2.8,5.7-0.1,5.7-2.8
		c0-0.5-0.2-1-0.4-1.4C5.5,4.8,4,3.8,2.4,3.6z"/>
	<linearGradient id="SVGID_2_" gradientUnits="userSpaceOnUse" x1="-2568.3645" y1="8.9144" x2="3117.7051" y2="8.9144">
		<stop  offset="0" style="stop-color:#987E24"/>
		<stop  offset="0.25" style="stop-color:#AC9442"/>
		<stop  offset="0.56" style="stop-color:#C0A961"/>
		<stop  offset="0.82" style="stop-color:#CCB673"/>
		<stop  offset="1" style="stop-color:#D0BB7A"/>
		<stop  offset="1" style="stop-color:#AD8024"/>
		<stop  offset="1" style="stop-color:#CDB671"/>
		<stop  offset="1" style="stop-color:#CBB470"/>
		<stop  offset="1" style="stop-color:#C4AE6E"/>
		<stop  offset="1" style="stop-color:#B8A26B"/>
		<stop  offset="1" style="stop-color:#A89166"/>
		<stop  offset="1" style="stop-color:#927C5F"/>
		<stop  offset="1" style="stop-color:#766157"/>
		<stop  offset="1" style="stop-color:#57434E"/>
		<stop  offset="1" style="stop-color:#513D4C"/>
	</linearGradient>
	<path class="st1" d="M146.9,1.2c-1.1-0.7-2.4-1.2-3.7-1.2c-0.8,0-1.7,0.2-2.4,0.6c-1.6,1.2-2.5,3.3-2.3,5.3c0,1.6,0.5,3.1,1.6,4.2
		c1.1,1.1,2.8,1.2,4.1,0.3c1.2-1,0.9-3.3-0.5-3.7c-1.4-0.4-1.5,0-2-0.5c-0.3-0.6-0.1-1.4,0.5-1.8c0,0,0.1,0,0.1,0
		c0.7-0.3,1.4-0.4,2.1-0.1c2.3,0.6,4.7,2.3,4.6,4.7c-0.1,2.4-1.7,3.5-3.5,4.2c-2.8,1.1-6,0.7-8.5-1c-2.5-1.8-3.9-4.7-5.8-7.2
		c-1.9-2.5-4.9-4.6-7.9-3.8s-3.7,2.6-4.8,4.6c-1.1,2-1.8,4.2-3.4,5.8c-1.6,1.6-4.2,2.5-6.1,1.2c-1.9-1.3-2-3.2-2.7-5
		c-0.9-2.4-2.8-4.4-5.1-5.6c-2.4-1.1-5.1-0.9-7.4,0.4c-1.8,1.1-3,2.9-3.6,4.9c-0.3,1.7-1.2,3.3-2.4,4.5c-1.4,1.1-3.4,1.2-5.1,1.2
		c-1.6,0-3.1-0.9-4-2.3c-1.1-1.6-1.6-3.6-2.6-5.3c-1.4-2-3.5-3.4-5.9-3.8c-2.4-0.3-4.9,0.4-6.8,1.9c-1.9,1.6-3,3.9-4.5,5.8
		c-1.5,1.9-3.8,3.7-6.3,3.3c-2.5-0.4-3.5-2.1-4.6-3.8c-1.1-1.7-2-3.8-3.6-5.1c-1.9-1.4-4.2-1.9-6.5-1.5c-2.2,0.5-4.3,1.7-5.8,3.4
		c-2,2.2-3.4,5.1-5.9,6.7c-3.2,1.7-7.2,0.9-9.4-2c-0.9-1.2-1.2-2.8-0.8-4.3c0.6-1.4,2.1-2,3.5-1.5c0.1,0,0.1,0.1,0.2,0.1
		c1,0.6,1.4,2,2.6,2.2c0.8,0.2,1.6-0.3,1.9-1c0.4-0.7,0.4-1.5,0.2-2.3c-0.9-2.4-3.3-3.9-5.9-3.5C16,0.7,14,2.5,13.3,5
		c-0.6,2.5-0.2,5.1,1.1,7.3c1.6,2.6,4.2,4.3,7.2,4.9c3,0.6,6-0.3,8.3-2.3c1.8-1.7,2.8-4.1,4.3-6s3.8-3.7,6.3-3.3
		c2.5,0.4,4.2,3.3,5.7,5.5c1.1,1.8,2.7,3.3,4.5,4.4c1.9,1.1,4.1,1.4,6.2,0.8c1.8-0.8,3.2-2.1,4.3-3.7c1.1-1.6,2-3.3,3.2-4.8
		c1.2-1.5,3-2.5,4.9-2.8c4.3-0.5,5.2,4.3,6.5,7.2c1.3,2.9,6.3,5.3,10.4,4.9c1.7-0.1,3.3-0.9,4.5-2.2c2.1-2.3,1.5-6.1,3.6-8.4
		c2.1-2.3,7.1-1.4,8.8,1.4c1.7,2.8,1.1,3.4,1.8,5c1.3,2.6,3.8,4.3,6.6,4.5c2.8,0.1,5.5-1.4,7-3.8c0.9-1.5,1.2-3.3,1.9-4.9
		c0.7-1.6,1.8-3.3,3.5-3.7c1.9-0.4,3.8,0.3,5,1.8c1.1,1.4,2.1,2.9,3,4.5c2.2,3.2,5.4,5.8,9.1,6.4s8-0.9,9.9-4.2c0.6-1.2,1-2.5,1-3.9
		c0-1.1-0.2-2.1-0.5-3.1C150.6,4.3,149,2.4,146.9,1.2z"/>
	<linearGradient id="SVGID_3_" gradientUnits="userSpaceOnUse" x1="78.3195" y1="9.6039" x2="248.2172" y2="9.6039">
		<stop  offset="0" style="stop-color:#987E24"/>
		<stop  offset="0.25" style="stop-color:#AC9442"/>
		<stop  offset="0.56" style="stop-color:#C0A961"/>
		<stop  offset="0.82" style="stop-color:#CCB673"/>
		<stop  offset="1" style="stop-color:#D0BB7A"/>
		<stop  offset="1" style="stop-color:#AD8024"/>
		<stop  offset="1" style="stop-color:#CDB671"/>
		<stop  offset="1" style="stop-color:#CBB470"/>
		<stop  offset="1" style="stop-color:#C4AE6E"/>
		<stop  offset="1" style="stop-color:#B8A26B"/>
		<stop  offset="1" style="stop-color:#A89166"/>
		<stop  offset="1" style="stop-color:#927C5F"/>
		<stop  offset="1" style="stop-color:#766157"/>
		<stop  offset="1" style="stop-color:#57434E"/>
		<stop  offset="1" style="stop-color:#513D4C"/>
	</linearGradient>
	<path class="st2" d="M159.5,9c-0.2-1.2-1.1-2.1-2.3-2.3c-0.8,0-1.5,0.6-1.6,1.4h0c-0.2,0.7-0.2,1.5,0,2.2c0.2,0.7,0.5,1.4,1.1,1.9
		c1.7,1.2,2.9-1.4,2.9-2.8C159.5,9.3,159.5,9.1,159.5,9z"/>
	<linearGradient id="SVGID_4_" gradientUnits="userSpaceOnUse" x1="31.1554" y1="4.1019" x2="201.6844" y2="4.1019">
		<stop  offset="0" style="stop-color:#987E24"/>
		<stop  offset="0.25" style="stop-color:#AC9442"/>
		<stop  offset="0.56" style="stop-color:#C0A961"/>
		<stop  offset="0.82" style="stop-color:#CCB673"/>
		<stop  offset="1" style="stop-color:#D0BB7A"/>
		<stop  offset="1" style="stop-color:#AD8024"/>
		<stop  offset="1" style="stop-color:#CDB671"/>
		<stop  offset="1" style="stop-color:#CBB470"/>
		<stop  offset="1" style="stop-color:#C4AE6E"/>
		<stop  offset="1" style="stop-color:#B8A26B"/>
		<stop  offset="1" style="stop-color:#A89166"/>
		<stop  offset="1" style="stop-color:#927C5F"/>
		<stop  offset="1" style="stop-color:#766157"/>
		<stop  offset="1" style="stop-color:#57434E"/>
		<stop  offset="1" style="stop-color:#513D4C"/>
	</linearGradient>
	<path class="st3" d="M111.6,6.6c0.6-0.2,1-0.8,1.1-1.4c0.2-1.2-0.4-3.2-1.6-3.7h-0.5c-1.3,0-2.2,1.7-2,2.9
		C108.8,5.7,110.2,7.1,111.6,6.6z"/>
	<linearGradient id="SVGID_5_" gradientUnits="userSpaceOnUse" x1="-30.0423" y1="4.8204" x2="148.503" y2="4.8204">
		<stop  offset="0" style="stop-color:#987E24"/>
		<stop  offset="0.25" style="stop-color:#AC9442"/>
		<stop  offset="0.56" style="stop-color:#C0A961"/>
		<stop  offset="0.82" style="stop-color:#CCB673"/>
		<stop  offset="1" style="stop-color:#D0BB7A"/>
		<stop  offset="1" style="stop-color:#AD8024"/>
		<stop  offset="1" style="stop-color:#CDB671"/>
		<stop  offset="1" style="stop-color:#CBB470"/>
		<stop  offset="1" style="stop-color:#C4AE6E"/>
		<stop  offset="1" style="stop-color:#B8A26B"/>
		<stop  offset="1" style="stop-color:#A89166"/>
		<stop  offset="1" style="stop-color:#927C5F"/>
		<stop  offset="1" style="stop-color:#766157"/>
		<stop  offset="1" style="stop-color:#57434E"/>
		<stop  offset="1" style="stop-color:#513D4C"/>
	</linearGradient>
	<path class="st4" d="M54.6,7c0.5-0.3,0.7-0.8,0.7-1.4c0.1-0.3,0.1-0.5,0-0.8c-0.2-0.7-0.6-2-1.4-2.4h-0.6c-0.8,0.1-1.5,0.5-2,1.2
		V3.5c-0.4,0.9-0.4,1.9,0.2,2.7C52.2,7.2,53.5,7.5,54.6,7z"/>
	<linearGradient id="SVGID_6_" gradientUnits="userSpaceOnUse" x1="11.1795" y1="5.8785" x2="165.4838" y2="5.8785">
		<stop  offset="0" style="stop-color:#987E24"/>
		<stop  offset="0.25" style="stop-color:#AC9442"/>
		<stop  offset="0.56" style="stop-color:#C0A961"/>
		<stop  offset="0.82" style="stop-color:#CCB673"/>
		<stop  offset="1" style="stop-color:#D0BB7A"/>
		<stop  offset="1" style="stop-color:#AD8024"/>
		<stop  offset="1" style="stop-color:#CDB671"/>
		<stop  offset="1" style="stop-color:#CBB470"/>
		<stop  offset="1" style="stop-color:#C4AE6E"/>
		<stop  offset="1" style="stop-color:#B8A26B"/>
		<stop  offset="1" style="stop-color:#A89166"/>
		<stop  offset="1" style="stop-color:#927C5F"/>
		<stop  offset="1" style="stop-color:#766157"/>
		<stop  offset="1" style="stop-color:#57434E"/>
		<stop  offset="1" style="stop-color:#513D4C"/>
	</linearGradient>
	<path class="st5" d="M82.8,8.4C84.1,8.8,84.9,7,85,6c-0.1-0.6-0.3-1.2-0.5-1.8c-0.3-0.6-0.7-0.9-1.1-0.9c-0.4,0-1.8,1-2.1,1.9
		c-0.2,0.8,0,1.7,0.5,2.4C82,8,82.4,8.3,82.8,8.4z"/>
	<linearGradient id="SVGID_7_" gradientUnits="userSpaceOnUse" x1="23.173" y1="11.859" x2="183.585" y2="11.859">
		<stop  offset="0" style="stop-color:#987E24"/>
		<stop  offset="0.25" style="stop-color:#AC9442"/>
		<stop  offset="0.56" style="stop-color:#C0A961"/>
		<stop  offset="0.82" style="stop-color:#CCB673"/>
		<stop  offset="1" style="stop-color:#D0BB7A"/>
		<stop  offset="1" style="stop-color:#AD8024"/>
		<stop  offset="1" style="stop-color:#CDB671"/>
		<stop  offset="1" style="stop-color:#CBB470"/>
		<stop  offset="1" style="stop-color:#C4AE6E"/>
		<stop  offset="1" style="stop-color:#B8A26B"/>
		<stop  offset="1" style="stop-color:#A89166"/>
		<stop  offset="1" style="stop-color:#927C5F"/>
		<stop  offset="1" style="stop-color:#766157"/>
		<stop  offset="1" style="stop-color:#57434E"/>
		<stop  offset="1" style="stop-color:#513D4C"/>
	</linearGradient>
	<path class="st6" d="M99.6,10.7C99.4,10,98.8,9.5,98,9.4c-1.2,0.2-2.1,1.2-2,2.4c0.1,1.2,1.3,2.7,2.7,2.5c1.4-0.2,1.3-1.1,1.1-2.6
		C99.8,11.4,99.7,11,99.6,10.7z"/>
	<linearGradient id="SVGID_8_" gradientUnits="userSpaceOnUse" x1="48.301" y1="11.4449" x2="213.2698" y2="11.4449">
		<stop  offset="0" style="stop-color:#987E24"/>
		<stop  offset="0.25" style="stop-color:#AC9442"/>
		<stop  offset="0.56" style="stop-color:#C0A961"/>
		<stop  offset="0.82" style="stop-color:#CCB673"/>
		<stop  offset="1" style="stop-color:#D0BB7A"/>
		<stop  offset="1" style="stop-color:#AD8024"/>
		<stop  offset="1" style="stop-color:#CDB671"/>
		<stop  offset="1" style="stop-color:#CBB470"/>
		<stop  offset="1" style="stop-color:#C4AE6E"/>
		<stop  offset="1" style="stop-color:#B8A26B"/>
		<stop  offset="1" style="stop-color:#A89166"/>
		<stop  offset="1" style="stop-color:#927C5F"/>
		<stop  offset="1" style="stop-color:#766157"/>
		<stop  offset="1" style="stop-color:#57434E"/>
		<stop  offset="1" style="stop-color:#513D4C"/>
	</linearGradient>
	<path class="st7" d="M127.1,10.9c-0.3-1-1.2-1.7-2.3-1.8c-0.7,0-1.3,0.4-1.5,1.1c-0.2,0.7-0.1,1.4,0.2,2c0.4,0.9,1.2,1.9,2.3,1.5
		c1-0.3,1.6-1.3,1.4-2.3C127.2,11.2,127.1,11.1,127.1,10.9z"/>
	<linearGradient id="SVGID_9_" gradientUnits="userSpaceOnUse" x1="-35.3113" y1="13.0576" x2="123.3703" y2="13.0576">
		<stop  offset="0" style="stop-color:#987E24"/>
		<stop  offset="0.25" style="stop-color:#AC9442"/>
		<stop  offset="0.56" style="stop-color:#C0A961"/>
		<stop  offset="0.82" style="stop-color:#CCB673"/>
		<stop  offset="1" style="stop-color:#D0BB7A"/>
		<stop  offset="1" style="stop-color:#AD8024"/>
		<stop  offset="1" style="stop-color:#CDB671"/>
		<stop  offset="1" style="stop-color:#CBB470"/>
		<stop  offset="1" style="stop-color:#C4AE6E"/>
		<stop  offset="1" style="stop-color:#B8A26B"/>
		<stop  offset="1" style="stop-color:#A89166"/>
		<stop  offset="1" style="stop-color:#927C5F"/>
		<stop  offset="1" style="stop-color:#766157"/>
		<stop  offset="1" style="stop-color:#57434E"/>
		<stop  offset="1" style="stop-color:#513D4C"/>
	</linearGradient>
	<path class="st8" d="M38.6,10.6c-0.4,0-0.7,0.1-1,0.4c-0.8,0.8-1.1,2-0.7,3c0.2,1,1.1,1.6,2.1,1.5c1.1-0.1,1.6-1.4,1.6-2.4
		c0-0.1,0-0.3-0.1-0.4C40.4,11.7,39.5,10.6,38.6,10.6z"/>
	<linearGradient id="SVGID_10_" gradientUnits="userSpaceOnUse" x1="-2.5296" y1="12.0404" x2="150.2496" y2="12.0404">
		<stop  offset="0" style="stop-color:#987E24"/>
		<stop  offset="0.25" style="stop-color:#AC9442"/>
		<stop  offset="0.56" style="stop-color:#C0A961"/>
		<stop  offset="0.82" style="stop-color:#CCB673"/>
		<stop  offset="1" style="stop-color:#D0BB7A"/>
		<stop  offset="1" style="stop-color:#AD8024"/>
		<stop  offset="1" style="stop-color:#CDB671"/>
		<stop  offset="1" style="stop-color:#CBB470"/>
		<stop  offset="1" style="stop-color:#C4AE6E"/>
		<stop  offset="1" style="stop-color:#B8A26B"/>
		<stop  offset="1" style="stop-color:#A89166"/>
		<stop  offset="1" style="stop-color:#927C5F"/>
		<stop  offset="1" style="stop-color:#766157"/>
		<stop  offset="1" style="stop-color:#57434E"/>
		<stop  offset="1" style="stop-color:#513D4C"/>
	</linearGradient>
	<path class="st9" d="M68.6,9.9c-1,0-1.8,0.8-1.8,1.8c0,0.2,0,0.3,0.1,0.5c0.2,2.8,4.2,2.6,3.6-0.4C70.4,10.8,69.6,10,68.6,9.9z"/>
</g>
</svg>
