<svg xmlns="http://www.w3.org/2000/svg" viewBox="0 0 315.3 57.3"><defs><style>.cls-1{isolation:isolate;}.cls-2{opacity:0.5;mix-blend-mode:multiply;}.cls-3{fill:#c4dce2;}</style></defs><title>arabesco azul 2</title><g class="cls-1"><g id="Capa_1" data-name="Capa 1"><g class="cls-2"><path class="cls-3" d="M194.3,23.2c2.8,6.3,22.7-1.5,23.3,8.7.5,7.3-11.8,13.9-19.7,9.6C182.4,32.9,175.4,12.6,186.5,0H173.9c-6.9,14.6-2.2,33.9,11,45.7,16.2,14.6,42.9,6.7,44.7-11.4C232.4,7.7,190.3,14,194.3,23.2Z"/><path class="cls-3" d="M315.3,12.5C308.1,9.2,298.9,5.7,298.5,0H282.4c-.9,13,20.5,25.5,32.9,24.9Z"/><path class="cls-3" d="M315.3,46.6c-12.8,2.7-27.9-1.9-38.9-19.6-5.6-9.2-11.5-18.8-18.9-27H240.2c22.1,19.9,40.2,57.2,68.2,57.3,2.4,0,4.7-.2,6.9-.4Z"/></g><g class="cls-2"><path class="cls-3" d="M.7,21.6C3.4,27.9,23.4,20,24,30.3c.4,7.3-11.9,13.9-19.7,9.6A31.8,31.8,0,0,1,0,37.1V49.6c15.6,6.2,34.4-1.8,36-16.9C38.8,6.1-3.3,12.4.7,21.6Z"/><path class="cls-3" d="M129.7,18.2c2.2-6.3-21.3-9.7-24.5-18.2H88.7C89.9,16.6,125.3,31.4,129.7,18.2Z"/><path class="cls-3" d="M153.2,0H138.9c5.4,7.4,8.5,16.7,6.3,24.8-5.5,20.2-41.5,34.4-62.4.6C77.5,16.8,72,7.8,65.3,0h-17c21.4,20.3,39.2,55.6,66.4,55.6,39.6.1,52.8-32.2,38.6-55.4Z"/></g></g></g></svg>