<svg id="Capa_1" data-name="Capa 1" xmlns="http://www.w3.org/2000/svg" viewBox="0 0 39 36.4"><defs><style>.cls-1{opacity:0.8;}.cls-2{fill:#fff;}</style></defs><title>Sonido</title><g class="cls-1"><path class="cls-2" d="M22.7,1.1a1.4,1.4,0,0,0-1.4.2L8.6,11.4h-6A2.6,2.6,0,0,0,0,14V24.4A2.6,2.6,0,0,0,2.6,27h6L21.3,37.1a1.1,1.1,0,0,0,.8.3h.6a1.4,1.4,0,0,0,.7-1.2V2.3a1.4,1.4,0,0,0-.7-1.2"/><path class="cls-2" d="M30,10a1.3,1.3,0,0,0-1.8,0,1.4,1.4,0,0,0,0,1.9,10.3,10.3,0,0,1,3,7.3,10.7,10.7,0,0,1-3,7.4,1.3,1.3,0,0,0,0,1.8,1.2,1.2,0,0,0,1.8,0,12.6,12.6,0,0,0,3.8-9.2A12.6,12.6,0,0,0,30,10"/><path class="cls-2" d="M33.7,6.3a1.3,1.3,0,0,0-1.9.1,1.3,1.3,0,0,0,0,1.8,15.1,15.1,0,0,1,4.6,11,15.1,15.1,0,0,1-4.6,11,1.4,1.4,0,0,0,0,1.9,1.8,1.8,0,0,0,1,.4,1.8,1.8,0,0,0,.9-.4,18.3,18.3,0,0,0,0-25.8"/></g></svg>