<svg id="Capa_1" data-name="Capa 1" xmlns="http://www.w3.org/2000/svg" viewBox="0 0 25.3 30.7"><defs><style>.cls-1{fill:#c39b52;}</style></defs><title>Navegante</title><path class="cls-1" d="M21,30.1c1.7-.6,1.8-1.3.5-2.1l-.8.2a4,4,0,0,1-1.5.3c-2.7-.2-5.5-.2-8.4-.2a7.8,7.8,0,0,0-2.6.4,5.3,5.3,0,0,1-4.1.1,5.3,5.3,0,0,0-2-.5,3.5,3.5,0,0,0,2,1.5,14.2,14.2,0,0,0,6.8.2,6.9,6.9,0,0,1,3.2.2,10.2,10.2,0,0,0,6.9-.1m.2-21.5c-.2.1-.3.2-.3.4s.8,1.6,1.9,1.3l-.3-.4a2.7,2.7,0,0,0-1.3-1.3M8.7,20a11.4,11.4,0,0,1-8.7.1c2.9,2.5,6.2,3,10,1.4a9.7,9.7,0,0,1,7.3-.2,17.3,17.3,0,0,0,8,1,2.1,2.1,0,0,0-1-.6L22.9,21a22.5,22.5,0,0,0-9.2-2.5,41.3,41.3,0,0,0-5,1.5M7.1,19c1-.6.7-1-.8-1a1.1,1.1,0,0,0-.9.3l-.4.3c0,.2,0,.3.2.4a1.7,1.7,0,0,0,1.9,0M.8,23.6c-.2-.1-.3,0-.2.1,1.2,2.5,3.3,3.3,6.3,2.6a12.8,12.8,0,0,1,5.5-.2,20,20,0,0,0,12.4-1.5.8.8,0,0,0-1.1-.4,12.1,12.1,0,0,1-5,.2l-9-1.1a12.7,12.7,0,0,1-6.1.8L.8,23.6M8.6,7.5a3.7,3.7,0,0,0-.2,3.1c.9,2.4,2.6,3.3,5.1,2.5A2.4,2.4,0,0,0,15.4,10c-.3-1.6-1.2-2.1-2.7-1.4s-.3.2-.1.2a1.6,1.6,0,0,1,1.3,1.9,1.1,1.1,0,0,1-1.2,1c-2-.1-2.9-1-2.5-2.8a2.2,2.2,0,0,1,.5-.8c2.6-1.6,4.7-1.2,6.5,1.2a2.9,2.9,0,0,1,.4,2.4,5.4,5.4,0,0,1-5,4.2,13.8,13.8,0,0,0-5.1,1.5,6.1,6.1,0,0,0,2.8.7h2.4c3.6-.4,6-2.1,7.3-5.3a3.3,3.3,0,0,0,.1-2.4c-1-3.7-3.4-5.5-7.3-5.5A4.8,4.8,0,0,0,8.6,7.5M8.2,16c0-1.3-.9-1.9-2.7-1.7H5a4.9,4.9,0,0,1-1.6.5,12.5,12.5,0,0,0,4.4,1.3c.3.1.4,0,.4-.2M12.1,3.3a.5.5,0,0,0,.1-.8A8.8,8.8,0,0,0,4.8.1,3.8,3.8,0,0,0,2,1.3a3,3,0,0,0-.9,2.8A5.7,5.7,0,0,0,6,9c.2,0,.3-.1.4-.3A4.5,4.5,0,0,1,10,4.5a5.3,5.3,0,0,0,2.1-1.2m-6-1.2a1,1,0,0,1,.8.4l.3.5v.2a4.3,4.3,0,0,1-.1.5c-.1.1-.2.2-.2.3a.9.9,0,0,1-.6.3H6.1A1.1,1.1,0,0,1,5.3,4l-.2-.3A.7.7,0,0,1,5,3.2a.9.9,0,0,1,.3-.7.9.9,0,0,1,.8-.4M23.9,7.4a11.1,11.1,0,0,0-3.1-.9h-.3c-.1.1-.2.1-.1.2Q21.8,9.2,24.6,8a1.3,1.3,0,0,0-.7-.6"/></svg>