<svg id="Capa_1" data-name="Capa 1" xmlns="http://www.w3.org/2000/svg" viewBox="0 0 27.7 31.9"><defs><style>.cls-1{fill:#c39b52;}</style></defs><title>Magos</title><path class="cls-1" d="M13.8,0a1.3,1.3,0,0,0-1.5,1.1c-.1,1.1-.2,2.3-.2,3.4s.1,3.1.3,4.6c.3,3.1.3,6.2.3,9.3-.1,1.1-.1,2.2-.1,3.3a16,16,0,0,0,.6,5.4c.2.9.6.9,1.2.1a2.8,2.8,0,0,0,.4-1.5c-.4-7.2-.6-14.5-.6-21.7a2.8,2.8,0,0,1,.4-1.3C15.3,1.4,15,.5,13.8,0Z"/><path class="cls-1" d="M13.3,6a.9.9,0,0,0-.3-.9,21.9,21.9,0,0,0-3-1.6l-.4.2c-.3.2-.4.3-.2.5A4.1,4.1,0,0,0,13.3,6m-.2,4.3c.3-.5.2-.9-.3-1.1A36.8,36.8,0,0,1,8.4,6.9l-.7.3h0c-.3.3-.4.5-.1.8h.1l.7.6,2.2,1.1,2.5.4M14,9.1c-.6.3-.7.7-.4,1.1a6.6,6.6,0,0,0,2.5-.7,7.1,7.1,0,0,0,2.2-1.3l.7-.6v-1h0a.7.7,0,0,0-.6-.2c-1.5,1-2.9,1.9-4.4,2.7m3.2-5.8-.4-.2a20.5,20.5,0,0,0-3.1,2,.9.9,0,0,0-.3.9,4.8,4.8,0,0,0,4-2.2.4.4,0,0,0-.2-.5M23,22.9c2.2.5,3.2,2,3,4.6A2.6,2.6,0,0,1,24,30c-2.3.7-3.5.1-3.6-2a1.2,1.2,0,0,1,.9-1.3c2-.6,2.4-.1,1.1,1.6,1.1.3,1.7-.2,1.6-1.6a1.4,1.4,0,0,0-.2-.7c-1.3-1.5-2.6-1.4-3.9.4a2.6,2.6,0,0,0-.5,1.9c.3,2.9,2,4,5.1,3.4s4-4.7,2.4-8.3a3.5,3.5,0,0,0-2.5-2.1,10.2,10.2,0,0,0-10.7,3.9c0,.1,0,.1-.1.1L9.9,28.7A5.7,5.7,0,0,1,4.7,30c-2.2-.4-3.2-2-3-4.5a2.8,2.8,0,0,1,2-2.6c2.3-.7,3.5,0,3.5,2.1a1.1,1.1,0,0,1-.8,1.3c-2,.6-2.4,0-1.1-1.6-1.1-.4-1.7.2-1.6,1.6a1.4,1.4,0,0,0,.2.7c1.3,1.5,2.6,1.3,3.9-.5a2.6,2.6,0,0,0,.5-1.9q-.5-4.2-5.1-3.3C0,23.2-.8,26,.8,29.6a3.2,3.2,0,0,0,2.5,2A9.9,9.9,0,0,0,14,27.8a.1.1,0,0,1,.1-.1l3.7-3.4A5.7,5.7,0,0,1,23,22.9m-.1-8.7a.7.7,0,0,0-.6-.2L19,15.3A51.2,51.2,0,0,0,13.8,18l-.4.3-.4-.2A48.7,48.7,0,0,0,7.7,16L4.4,15l-.5.2c-.3.3-.3.5-.1.6a10.9,10.9,0,0,0,3.9,2.3,16.4,16.4,0,0,0,3.8,1A3.5,3.5,0,0,0,13,19l.4-.2.3.2h1.5A15.7,15.7,0,0,0,19,17.5a13.8,13.8,0,0,0,4-2.8c.2-.2.1-.3-.1-.5M19.8,12c1.1-1,1-1.7-.5-2.1l-.3.2a12.2,12.2,0,0,0-2.9,1.7,16,16,0,0,0-2.7,2.5,15.1,15.1,0,0,0-2.8-2.2,13,13,0,0,0-2.9-1.4H7.4c-1.4.5-1.6,1.2-.4,2.1a1.8,1.8,0,0,0,.7.5l1.3.5,1.6.3,2.6.5h.3l2.6-.8,1.6-.5a5.2,5.2,0,0,0,1.3-.6Z"/></svg>