<svg id="Capa_1" data-name="Capa 1" xmlns="http://www.w3.org/2000/svg" viewBox="0 0 33.5 34.1"><defs><style>.cls-1{fill:#c39b52;}</style></defs><title>Oradores</title><g id="Layer0_4_MEMBER_1_MEMBER_0_FILL" data-name="Layer0 4 MEMBER 1 MEMBER 0 FILL"><path class="cls-1" d="M19.5,30.4a.7.7,0,0,0-.9.1c-.4-1.2-1.5-1.6-3.2-1a1.7,1.7,0,0,0-1.2,1.1,4,4,0,0,0-.1,1.5,1.5,1.5,0,0,1-1-1.8v-.9a1.3,1.3,0,0,0-.7.6c-.1.1-.2.2-.2.3a1.7,1.7,0,0,0,1.5,2.3c.2.1.4,0,.5,0s1.4,1.2,3.2.9a1.6,1.6,0,0,0,1.3-1.9,3.1,3.1,0,0,0-.1-1A1.8,1.8,0,0,1,20,32.9a2.9,2.9,0,0,1-.2.9c1.5-1.5,1.4-2.7-.3-3.4m-4.1.2c2.7-1,3.3-.2,1.7,2.3-.1.2-.4.3-.8.2s-1.8-1.2-.9-2.5M10,25.2a2.8,2.8,0,0,1-.4,1.9c-1.8,2.9-3.8,2.9-6,.1H3.5l-.3-.8A12,12,0,0,0,.7,22.5a1,1,0,0,0-.7,1,5.6,5.6,0,0,0,1.8,4.6l1,1.1c2.4,2.3,4.9,2.4,7.5.2a2.6,2.6,0,0,0,1.1-2.7,5.3,5.3,0,0,1,1.7-5.2q.3-.3,0-.3c-2.4.1-3.4,1.4-3.1,4m20.8-2.1c-2.1-1.1-4.3-.8-6.5.9-.1.1-.1.1-.2,0A21.7,21.7,0,0,1,21,20.3a1.9,1.9,0,0,0-.4,1.7q1.2,5.3,6,2.7a6,6,0,0,1,2.3-.6c1.2-.1,1.8.5,1.6,1.6a10.7,10.7,0,0,1-.8,2.7,10.6,10.6,0,0,1-5.5,3.3.9.9,0,0,0-.7,1.1c.4,1.4,1.4,1.6,3,.8a11.8,11.8,0,0,0,3.8-3.2,10.1,10.1,0,0,0,.9-1.3,10.7,10.7,0,0,0,.9-2.7,2.7,2.7,0,0,0-1.3-3.3M26.7,1.8C23.8,3.3,23,5.5,24.4,8.5a1.8,1.8,0,0,1-.9,2.7,11,11,0,0,1-4.4,1.3,1.7,1.7,0,0,0,2.1.9c3.6-.3,4.9-2,4.1-5.1a4.1,4.1,0,0,1,.2-2.9c.9-1.7,1.9-2.4,3.2-2.1a4,4,0,0,1,2.7,1.6A3.4,3.4,0,0,1,32,6.4c.2.4.6.4,1.4.1a3,3,0,0,0,0-1.9,4,4,0,0,0-1.2-1.5,5.7,5.7,0,0,0-2.3-1.2,8.4,8.4,0,0,0-3.2-.1M19.9.1a1.7,1.7,0,0,0,0,1,1.4,1.4,0,0,1-1,1.7,8.6,8.6,0,0,0-.1-1.5,1.9,1.9,0,0,0-1.2-1c-1.8-.6-2.9-.3-3.3,1a.6.6,0,0,0-.8-.2c-1.7.8-1.8,1.9-.4,3.4a6.4,6.4,0,0,1-.2-.9,1.9,1.9,0,0,1,1.4-2.3c0,.3-.1.6-.1,1s.4,1.8,1.4,2,2.8,0,3.1-1h.5c1.3-.2,1.8-1,1.6-2.4L20.5.7,19.9.1M17.6,1.3c.8,1.4.5,2.3-1,2.6a.7.7,0,0,1-.8-.3c-1.6-2.5-1-3.2,1.8-2.3M1.3,7.2a4.4,4.4,0,0,0,.2,3c1.3,2.5,3.5,3.1,6.6,1.9a2.9,2.9,0,0,1,2.4.1,17.3,17.3,0,0,0,3.2,1.4c-.8-3.2-3.2-4.2-7.1-3.1S2.4,10.7,3,8.1a10.6,10.6,0,0,1,.9-2.5c.8-.4,1.6-1,2.4-1.5s2.1-2.3-.1-2.7A13.2,13.2,0,0,0,3.7,3a3.1,3.1,0,0,0-.9,1.1A8.1,8.1,0,0,0,1.3,7.2Z"/></g></svg>