<svg id="Capa_1" data-name="Capa 1" xmlns="http://www.w3.org/2000/svg" viewBox="0 0 55.4 33.9"><defs><style>.cls-1{fill:#c39b52;}</style></defs><title>Sacerdotes</title><g id="S_mbolo_6_0_Layer0_0_FILL" data-name="S mbolo 6 0 Layer0 0 FILL"><path class="cls-1" d="M0,27.4a45.1,45.1,0,0,0,6.1,2.1c2.9.9,4.6,1.3,5.2,1.2s.4-.9.5-2.6a7.5,7.5,0,0,0-.3-3.4C7.6,25.3,3.8,26,0,26.9v.5m3.2-.1L4.7,27l5.9-1.2c.2.1.2.5.1,1.2a3.4,3.4,0,0,0-.1,1v1.5l-3-.6a16.5,16.5,0,0,1-4.4-1.6M9.7,10.7l-.2.3H9.4a43.6,43.6,0,0,0,2,4.4c1.1,1.9,1.9,3,2.3,3.1s.7-.5,1.8-1.7a11.5,11.5,0,0,0,2-2.8,68.1,68.1,0,0,0-7.8-3.4m6.6,3.8c0,.2-.2.5-.7,1l-.7.8L14,17.4a14,14,0,0,1-1.3-1.8,14.8,14.8,0,0,1-1.5-3.1l1.1.3,4,1.7M27,25.7c1.7-1.3,3.6-1.2,5.8.5a36.4,36.4,0,0,0-3.4,5.6,2.2,2.2,0,0,0-.1.9c0,.4,0,.6.1.7l.8.2H40.8a16.5,16.5,0,0,0,.9-10,12.3,12.3,0,0,0-4.9-7.5,15.5,15.5,0,0,0-11.6-2.5,11.2,11.2,0,0,0-8,4.1,29.2,29.2,0,0,0-2.1,3.2,13.4,13.4,0,0,0-1,12.4h2.5a38.6,38.6,0,0,0,6.8,0h0c.1-.3.1-.7.2-1.2s.6-2,1-3.1a18.3,18.3,0,0,1,1-2A7.3,7.3,0,0,1,27,25.7M28.7,15l2,.2a8.7,8.7,0,0,1,5.8,2.4q6.8,6.9,3.6,15.3a45.4,45.4,0,0,1-9.1-.3V32l2.9-4.9h.3A10,10,0,0,0,39,25.7a.5.5,0,0,0-.2-.4,1.1,1.1,0,0,0-1.1-.2l-1.6.2a3.9,3.9,0,0,0-2.3.6l-.9-.9h1a11.9,11.9,0,0,0,3.9-3c0-.1,0-.2-.1-.2s-.2-.3-.4-.3a3.5,3.5,0,0,0-1.3.5,9.4,9.4,0,0,0-3.3,2.9,7.2,7.2,0,0,0-1.9-1.1,18.5,18.5,0,0,1,1.4-1.4,5.9,5.9,0,0,0,2.3-3.4,7.1,7.1,0,0,0-2.6,1.3c-1.5,1-2.2,2.1-2.2,3.2a5.8,5.8,0,0,0-1.4-.3c.2-.2.5-.8,1.1-1.7l1.1-1.7a4.5,4.5,0,0,0,1.1-2,1.3,1.3,0,0,0-.8-1.4c-.2,0-.8.9-1.9,2.8s-1.7,3.3-1.7,4a11.9,11.9,0,0,0-3.5,4.5c-.3.8-.6,1.6-.8,2.3-.3-2.4-1.9-4.2-4.9-5.5-1.1.7-1,1.4.4,2.2s3.4,3.1,3.3,5.4v.6H14.8l-.3-1.4a17.6,17.6,0,0,1,2.2-10.1A11.6,11.6,0,0,1,25,15.3a14.6,14.6,0,0,1,3.7-.3m1.8,12.1c0-.2,0-.3-.1-.3a3.4,3.4,0,0,0-2.4-.7,1.6,1.6,0,0,0-1.5.9,31.8,31.8,0,0,0-1.6,3.2q-.6,1.7.9,2.1t3.3-1.5l.3-.5a7.6,7.6,0,0,0,1.1-3.2m-2.2,0h1a10.1,10.1,0,0,1-.7,1.5,10.4,10.4,0,0,0-.4,1,1.5,1.5,0,0,1-2.1,1.1,5.6,5.6,0,0,1,.4-1.2,13.4,13.4,0,0,1,1.2-2.4h.6m-1,2a.2.2,0,0,0,.4.1c.9-.3.9-.8,0-1.2s-.7.6-.4,1.1M27.9,0h-.2c-.3,1.2-1,3.4-2,6.5s-1.1,4.3-1,4.8.9.4,2.5.5a8,8,0,0,0,3.5-.3c-.3-1.7-.6-3.6-1.1-5.8L28.2,0h-.3m.5,10.7H25.9a18.2,18.2,0,0,1,.8-3.5,23.6,23.6,0,0,1,1.2-3.9l1.7,7.4c-.2.2-.6.2-1.2.1m17.4.8a.2.2,0,0,0-.2-.2,67.6,67.6,0,0,0-7.8,3.3,9.9,9.9,0,0,0,2,2.8,7.9,7.9,0,0,0,1.8,1.8C42,19,42.8,18,43.9,16a28.5,28.5,0,0,0,2-4.3v-.2M44.1,13a9.4,9.4,0,0,1-1.5,3.2,7.6,7.6,0,0,1-1.3,1.7l-.9-1.1-.7-.8c-.4-.4-.7-.7-.7-.9l4-1.7,1.1-.4M55.3,27.2a.2.2,0,0,0,0-.3c-3.7-.9-7.6-1.6-11.4-2.2a7.5,7.5,0,0,0-.3,3.4c.1,1.7.2,2.5.4,2.6s2.4-.3,5.3-1.2a47.9,47.9,0,0,0,6-2.1v-.2M44.7,27q-.2-1,0-1.2L50.6,27l1.6.3a17.9,17.9,0,0,1-4.4,1.6l-3,.6V28C44.8,27.7,44.7,27.3,44.7,27Z"/></g></svg>