<svg id="Capa_1" data-name="Capa 1" xmlns="http://www.w3.org/2000/svg" viewBox="0 0 28.4 28.4"><defs><style>.cls-1,.cls-2{fill:#27333b;stroke:#95bfcb;stroke-miterlimit:10;}.cls-2{stroke-width:0.94px;}.cls-3{fill:#95bfcb;}</style></defs><title>Mesa de trabajo 1 copia</title><path class="cls-1" d="M27.9,14.2A13.7,13.7,0,1,1,14.2.5,13.8,13.8,0,0,1,27.9,14.2"/><path class="cls-2" d="M27.9,14.2A13.7,13.7,0,1,1,14.2.5,13.8,13.8,0,0,1,27.9,14.2Z"/><path class="cls-3" d="M23.7,13.9l-1.8-.5h0a7.5,7.5,0,0,0-1.5-3.8l1.5-2.6a.3.3,0,0,0,0-.4h-.4L18.8,8a7.6,7.6,0,0,0-3.7-1.6H15l-.5-1.8c-.1-.3-.6-.3-.6,0l-.5,1.8h-.1A7.6,7.6,0,0,0,9.5,8L6.9,6.4H6.5a.6.6,0,0,0-.1.4L8,9.5a7.6,7.6,0,0,0-1.6,3.8h.1l-1.8.5a.3.3,0,0,0-.3.3.3.3,0,0,0,.3.3l1.8.5H6.4A7.6,7.6,0,0,0,8,18.8L6.4,21.5a.6.6,0,0,0,.1.4h.4l2.6-1.5a7.5,7.5,0,0,0,3.8,1.5h.1l.5,1.8c0,.1.1.2.3.2s.3-.1.3-.2l.5-1.8h.1a7.5,7.5,0,0,0,3.7-1.5l2.7,1.5c0,.1.1.1.2.1h.2a.3.3,0,0,0,0-.4l-1.5-2.7a7.5,7.5,0,0,0,1.5-3.7h0l1.8-.5c.1,0,.2-.2.2-.3S23.8,13.9,23.7,13.9Zm-2.5-1-2.4-.6,1.3-2.2A9.6,9.6,0,0,1,21.2,12.9Zm-.4-5.3L19.7,9.4h0l-1.5,2.7-1.5-.4-.4-1.5,1.3-.8Zm-2.6.7-1,.6-1.1.6-.6-2.3A5.4,5.4,0,0,1,18.2,8.3ZM12.9,7.2l-.6,2.3L10.1,8.3A6.1,6.1,0,0,1,12.9,7.2Zm-5.3.4,4.5,2.6-.4,1.5-1.5.4-.4-.6Zm.7,2.5,1.2,2.2-2.3.6A6.1,6.1,0,0,1,8.3,10.1ZM7.2,15.5l2.3.6-.4.8-.8,1.3A5.4,5.4,0,0,1,7.2,15.5Zm2.2,4.2h0l-1.8,1,2.6-4.5,1.5.4.4,1.5Zm.7.4,2.2-1.3.6,2.4A9.6,9.6,0,0,1,10.1,20.1Zm5.4,1.1.6-2.4,2.1,1.3A8.1,8.1,0,0,1,15.5,21.2Zm5.3-.4L19,19.7h0l-2.7-1.5.4-1.5,1.5-.4.4.7,1.1,2h0Zm-.7-2.6-1.3-2.1,2.4-.6A8.1,8.1,0,0,1,20.1,18.2Zm-3.8-2.4a1.2,1.2,0,0,0-.5.5l-1.6,6.1-1.7-6.1h0c0-.3-.2-.4-.4-.5L6,14.2l6.1-1.7a.4.4,0,0,0,.4-.4L14.2,6l1.6,6.1c.1.2.2.4.5.4l6.1,1.7Z"/><path class="cls-3" d="M14.5,13.2h-.6a.7.7,0,0,0-.7.7v.6h0a.7.7,0,0,0,.7.7h.6a.7.7,0,0,0,.7-.7v-.6A.7.7,0,0,0,14.5,13.2Zm.1,1.3h-.8v-.6h.8Z"/></svg>