<svg id="Capa_1" data-name="Capa 1" xmlns="http://www.w3.org/2000/svg" viewBox="0 0 394.3 114.4"><defs><style>.cls-1{fill:#ccaf78;}</style></defs><title>Logo Uceipa Dorado</title><path class="cls-1" d="M17.7,100.1a10.8,10.8,0,0,0-6.1-1.8h0a11.1,11.1,0,0,0,5.2-2.6,6.1,6.1,0,0,0,2-5,5.6,5.6,0,0,0-.7-3,5.2,5.2,0,0,0-2-1.9,10.2,10.2,0,0,0-2.8-1,20,20,0,0,0-3.5-.2H.7c0,1.8.1,3.6.2,5.5s.1,3.7.1,5.5v7.4c0,1.9,0,3.8-.1,5.6S.7,112.2.7,114H9a16.4,16.4,0,0,0,3.8-.4,13.5,13.5,0,0,0,3.5-1.4,8.4,8.4,0,0,0,2.6-2.7,8.2,8.2,0,0,0,1-4C19.9,103,19.1,101.2,17.7,100.1ZM4.5,94.4c0-1.3.1-2.7.1-4.1s.1-2.7.2-4l1.4-.2H8l2.5.2a7.8,7.8,0,0,1,2.3.8,4.9,4.9,0,0,1,1.6,1.6,5.2,5.2,0,0,1,.7,2.9,5.9,5.9,0,0,1-.7,2.9,5,5,0,0,1-1.9,1.9,8.1,8.1,0,0,1-2.7,1.1,15.1,15.1,0,0,1-3,.2H4.5Zm10.9,14a7.3,7.3,0,0,1-1.6,2.3,6.9,6.9,0,0,1-2.2,1.4,7.5,7.5,0,0,1-2.6.4H6.7l-1.9-.2c-.1-1.5-.1-2.9-.2-4.3s-.1-2.9-.1-4.4V99.2h2a23.8,23.8,0,0,1,3.9.3,11,11,0,0,1,2.9.9,5.2,5.2,0,0,1,2,1.9,6.7,6.7,0,0,1,.6,3A10.1,10.1,0,0,1,15.4,108.4Z"/><path class="cls-1" d="M42.7,93.6H39.2v1.6a10.9,10.9,0,0,1,.1,1.8v3.6c0,1.7,0,3-.1,4a14.2,14.2,0,0,1-.1,2.3,10.6,10.6,0,0,1-.3,1.4,11.2,11.2,0,0,1-.5,1.3,4.4,4.4,0,0,1-1.7,1.9,5.6,5.6,0,0,1-3,.8,4.8,4.8,0,0,1-2.2-.4,4.4,4.4,0,0,1-1.5-1.2,5,5,0,0,1-1-1.8,14,14,0,0,1-.3-3.4c0-2.1,0-4.2.1-6.3a48.6,48.6,0,0,1,.3-5.6l-1.8.2-1.8-.2c0,1.2.1,2.4.1,3.5v3.3c0,1.1,0,2.1-.1,3.2v3.9a6.6,6.6,0,0,0,1.9,5.1,7.3,7.3,0,0,0,5.2,1.8,8.6,8.6,0,0,0,3.9-.9,8.7,8.7,0,0,0,2.9-3.1h0V114h3.3c0-1.2-.1-2.3-.1-3.6V100C42.5,98,42.6,95.8,42.7,93.6Z"/><path class="cls-1" d="M57.4,103.3a10.6,10.6,0,0,0-2.5-.9l-2.4-.7a5.2,5.2,0,0,1-1.9-1.2,2.9,2.9,0,0,1-.7-2.2,4.1,4.1,0,0,1,.3-1.6,2.4,2.4,0,0,1,.9-1.1,4.1,4.1,0,0,1,1.1-.7l1.3-.2a4.1,4.1,0,0,1,2.5.8,4.6,4.6,0,0,1,1.3,1.9h.5l.4-1.5a5.2,5.2,0,0,1,.7-1.5l-2.1-.8a7.6,7.6,0,0,0-2.7-.5,9.6,9.6,0,0,0-3.1.5A8.3,8.3,0,0,0,48.8,95a5.6,5.6,0,0,0-1.4,2,7.5,7.5,0,0,0-.5,2.6,4.6,4.6,0,0,0,2.7,4.5,8.7,8.7,0,0,0,2.4,1l2.5.8a7.8,7.8,0,0,1,1.8,1.1,2.5,2.5,0,0,1,.8,2.1,4.7,4.7,0,0,1-.3,1.7,5.8,5.8,0,0,1-1,1.2l-1.3.7a4.1,4.1,0,0,1-1.6.3,3.5,3.5,0,0,1-1.7-.4,3.7,3.7,0,0,1-1.4-.7,5.2,5.2,0,0,1-1.1-1,2.4,2.4,0,0,1-.6-.9h-.5a5.5,5.5,0,0,1-.3,1.6,11.6,11.6,0,0,1-.6,1.5,6.9,6.9,0,0,0,2.3.9,10.6,10.6,0,0,0,3.3.4,10.2,10.2,0,0,0,3.2-.5,7.3,7.3,0,0,0,4-3.7,6.9,6.9,0,0,0,.5-2.4,5,5,0,0,0-.7-2.9A5.8,5.8,0,0,0,57.4,103.3Z"/><path class="cls-1" d="M68.4,97.5q.1-2.1.3-3.9l-1.9.2-2-.2a23.8,23.8,0,0,1,.3,3.9c.1,1.5.1,2.8.1,4.1v4.5c0,1.3,0,2.6-.1,4a22.9,22.9,0,0,1-.3,3.9h3.9c-.1-1.2-.2-2.4-.3-3.9V97.5Z"/><path class="cls-1" d="M66.8,83.9a2.3,2.3,0,0,0-1.6.6,2.5,2.5,0,0,0-.6,1.6,2,2,0,0,0,.6,1.5,2,2,0,0,0,1.6.7,1.8,1.8,0,0,0,1.5-.7,2.1,2.1,0,0,0,.7-1.5,2.6,2.6,0,0,0-.7-1.6A2,2,0,0,0,66.8,83.9Z"/><path class="cls-1" d="M90.2,94.7A5.3,5.3,0,0,0,88,93.5a11.8,11.8,0,0,0-2.5-.4,7.5,7.5,0,0,0-4,1.1A8.6,8.6,0,0,0,78.6,97h-.1c0-1.1.1-2.3.2-3.4H76.9L75,93.6c.2,1.2.2,2.5.3,3.9s.1,2.8.1,4.1v4.5c0,1.3-.1,2.6-.1,4s-.1,2.7-.3,3.9h3.9c-.2-1.2-.2-2.4-.3-3.9s-.1-2.7-.1-4v-3.7a8.9,8.9,0,0,1,1.4-5.2,5.3,5.3,0,0,1,4.4-1.8A4.1,4.1,0,0,1,87.8,97a8.4,8.4,0,0,1,1.2,4.9v2.6c0,1.7,0,3.3-.1,4.9s-.1,3.1-.2,4.6h3.6v-9.6c.1-1.3.1-2.5.1-3.8a9,9,0,0,0-.6-3.6A5.9,5.9,0,0,0,90.2,94.7Z"/><path class="cls-1" d="M112.8,95.7a11.5,11.5,0,0,0-2.8-1.9,11.3,11.3,0,0,0-3.9-.7c-3.3,0-5.7,1-7.4,3.1s-2.5,4.7-2.5,8.2a10.2,10.2,0,0,0,.8,4,9.2,9.2,0,0,0,5.4,5.3,11.8,11.8,0,0,0,4.3.7,10.4,10.4,0,0,0,3.9-.7,10.7,10.7,0,0,0,3.2-1.8l.3-2.1h-.2l-1.3,1.2a9.5,9.5,0,0,1-1.7,1l-1.7.6a5.5,5.5,0,0,1-1.8.2,8.3,8.3,0,0,1-3.2-.6,7.6,7.6,0,0,1-2.3-1.7,6.8,6.8,0,0,1-1.4-2.5,10.1,10.1,0,0,1-.5-3.1v-.6c0-.3,0-.5.1-.6h14.8v-.9c0-.2.1-.5.1-.8a9.7,9.7,0,0,0-.6-3.4A7.8,7.8,0,0,0,112.8,95.7Zm-4.2,6.3h-8.5a11.4,11.4,0,0,1,.5-2.4,8.7,8.7,0,0,1,1-2.4,6.6,6.6,0,0,1,1.8-1.9,6,6,0,0,1,2.7-.7,5.5,5.5,0,0,1,2.8.7,6,6,0,0,1,1.6,1.9,8.4,8.4,0,0,1,.7,2.4,10.6,10.6,0,0,1,.2,2.4Z"/><path class="cls-1" d="M127.6,103.3a8.5,8.5,0,0,0-2.4-.9l-2.5-.7a5.7,5.7,0,0,1-1.8-1.2,3.4,3.4,0,0,1-.4-3.8,3.1,3.1,0,0,1,.8-1.1l1.2-.7,1.3-.2a4.1,4.1,0,0,1,2.4.8,3.8,3.8,0,0,1,1.3,1.9h.6c0-.4.2-.8.3-1.5a10.7,10.7,0,0,1,.7-1.5l-2.1-.8a6.8,6.8,0,0,0-2.7-.5,9.4,9.4,0,0,0-3,.5A7.4,7.4,0,0,0,119,95a5.3,5.3,0,0,0-1.3,2,5.8,5.8,0,0,0-.5,2.6,5,5,0,0,0,.7,2.9,5.8,5.8,0,0,0,1.9,1.6,10.9,10.9,0,0,0,2.5,1l2.4.8a6.8,6.8,0,0,1,1.9,1.1,2.8,2.8,0,0,1,.7,2.1,4.7,4.7,0,0,1-.3,1.7,12.5,12.5,0,0,1-.9,1.2l-1.4.7a4.1,4.1,0,0,1-1.6.3,3.2,3.2,0,0,1-1.6-.4,4.1,4.1,0,0,1-1.5-.7l-1-1a2.8,2.8,0,0,1-.7-.9h-.5a5.5,5.5,0,0,1-.3,1.6c-.2.6-.4,1.1-.5,1.5a6.3,6.3,0,0,0,2.2.9,10.6,10.6,0,0,0,3.3.4,10.2,10.2,0,0,0,3.2-.5,8.7,8.7,0,0,0,2.5-1.5,7.8,7.8,0,0,0,1.5-2.2,5.2,5.2,0,0,0,.5-2.4,4.4,4.4,0,0,0-2.6-4.5Z"/><path class="cls-1" d="M143.4,103.3a11.7,11.7,0,0,0-2.4-.9l-2.5-.7a5.2,5.2,0,0,1-1.9-1.2,2.9,2.9,0,0,1-.7-2.2,4.1,4.1,0,0,1,.3-1.6,3.3,3.3,0,0,1,.9-1.1,4.1,4.1,0,0,1,1.1-.7l1.3-.2a4.1,4.1,0,0,1,2.5.8,4.6,4.6,0,0,1,1.3,1.9h.5l.4-1.5a5.2,5.2,0,0,1,.7-1.5l-2.1-.8a6.8,6.8,0,0,0-2.7-.5,9.6,9.6,0,0,0-3.1.5,8.3,8.3,0,0,0-2.2,1.4,5.6,5.6,0,0,0-1.4,2,7.5,7.5,0,0,0-.4,2.6,4.4,4.4,0,0,0,2.6,4.5,8.7,8.7,0,0,0,2.4,1l2.5.8a11.8,11.8,0,0,1,1.9,1.1,2.8,2.8,0,0,1,.7,2.1,4.7,4.7,0,0,1-.3,1.7,5.8,5.8,0,0,1-1,1.2l-1.3.7a4.1,4.1,0,0,1-1.6.3,3.5,3.5,0,0,1-1.7-.4,3.7,3.7,0,0,1-1.4-.7,5.2,5.2,0,0,1-1.1-1,2.4,2.4,0,0,1-.6-.9h-.5a5.5,5.5,0,0,1-.3,1.6c-.2.6-.4,1.1-.5,1.5a5.6,5.6,0,0,0,2.2.9,10.6,10.6,0,0,0,3.3.4,10.2,10.2,0,0,0,3.2-.5,7,7,0,0,0,2.4-1.5,8.2,8.2,0,0,0,1.6-2.2,6.9,6.9,0,0,0,.5-2.4,5,5,0,0,0-.7-2.9A5.8,5.8,0,0,0,143.4,103.3Z"/><path class="cls-1" d="M167.3,98.6a20.9,20.9,0,0,0-3-1.4l-3.1-1.3a8.8,8.8,0,0,1-2.4-1.9,5.4,5.4,0,0,1-.5-5,4.2,4.2,0,0,1,1.1-1.6,4.4,4.4,0,0,1,1.6-1,7.8,7.8,0,0,1,2.1-.4,5.9,5.9,0,0,1,2,.4,4.5,4.5,0,0,1,1.3,1,4,4,0,0,1,1,1.2,6.1,6.1,0,0,1,.5,1.2h.5a16.7,16.7,0,0,1,.5-1.9l.6-1.5a9.4,9.4,0,0,0-2.6-1.4,11.6,11.6,0,0,0-3.4-.5,10.5,10.5,0,0,0-3.6.6,8.5,8.5,0,0,0-2.8,1.6,5.9,5.9,0,0,0-1.7,2.4,7.5,7.5,0,0,0-.6,3.1,7.1,7.1,0,0,0,.9,3.8,7.6,7.6,0,0,0,2.4,2.3,14,14,0,0,0,3,1.5l3.1,1.3a7.1,7.1,0,0,1,2.3,1.9,3.9,3.9,0,0,1,1,2.9,8.5,8.5,0,0,1-.4,2.3,5.7,5.7,0,0,1-1.2,1.8,4.6,4.6,0,0,1-1.8,1.3,6,6,0,0,1-2.4.5,7.9,7.9,0,0,1-2.3-.4,8.5,8.5,0,0,1-1.9-1,8.6,8.6,0,0,1-1.3-1.4,8,8,0,0,1-.9-1.4h-.5a10.1,10.1,0,0,1-.2,1.9c-.1.5-.3,1-.5,1.7a15,15,0,0,0,2.6,1.5,11.2,11.2,0,0,0,4,.6,13.3,13.3,0,0,0,4.2-.6,9.6,9.6,0,0,0,3.1-1.9,8.4,8.4,0,0,0,2-2.9,10.3,10.3,0,0,0,.6-3.5,6.4,6.4,0,0,0-.9-3.6A8.4,8.4,0,0,0,167.3,98.6Z"/><path class="cls-1" d="M178.4,97a6,6,0,0,1,2.1-1.8,6.6,6.6,0,0,1,3.2-.7,5.7,5.7,0,0,1,1.8.3l1.4.8a4,4,0,0,1,1.2,1,3.4,3.4,0,0,1,.7,1.1h.4a5.7,5.7,0,0,1,.4-1.4,5,5,0,0,1,.5-1.3,6.3,6.3,0,0,0-2.6-1.2,11.8,11.8,0,0,0-3.9-.6,12.1,12.1,0,0,0-3.8.6,8.8,8.8,0,0,0-3.3,1.8,9.2,9.2,0,0,0-2.4,3.1,12.5,12.5,0,0,0-.9,4.6,10.5,10.5,0,0,0,.9,4.6,9.3,9.3,0,0,0,2.3,3.1,7.6,7.6,0,0,0,3.2,1.7,13.4,13.4,0,0,0,3.5.5,9.4,9.4,0,0,0,3.7-.7,10.6,10.6,0,0,0,3-1.6,6.4,6.4,0,0,1,.3-2h-.2l-1.3,1.1a4.6,4.6,0,0,1-1.5.9,7.1,7.1,0,0,1-3.3.8,6.4,6.4,0,0,1-5.2-2.1q-1.8-2.1-1.8-6.3a12.2,12.2,0,0,1,.4-3.4A7.9,7.9,0,0,1,178.4,97Z"/><path class="cls-1" d="M207.4,94.7a5.5,5.5,0,0,0-2.1-1.2,8.5,8.5,0,0,0-2.3-.3,6.4,6.4,0,0,0-3.7,1,7,7,0,0,0-2.7,2.7h-.1v-6c0-1.1,0-2.1.1-3.1a28.1,28.1,0,0,1,.1-3,16.3,16.3,0,0,1,.1-2.4l-1.8.2-1.8-.2c0,.6.1,1.4.1,2.4a29.1,29.1,0,0,1,.1,3c0,1.1.1,2.1.1,3.2v13.3c0,1.1-.1,2.1-.1,3.2s0,2-.1,3-.1,1.7-.1,2.3h3.6a14.8,14.8,0,0,1-.1-2.3,27.1,27.1,0,0,1-.1-2.9c-.1-1-.1-2-.1-3v-2.7a7.4,7.4,0,0,1,1.3-4.8,4.8,4.8,0,0,1,4.1-1.8,3.8,3.8,0,0,1,3.3,1.6c.8,1,1.1,2.5,1.1,4.6v2.4c0,1.6,0,3.1-.1,4.6s-.1,2.9-.1,4.3h3.3v-9c.1-1.2.1-2.4.1-3.5a8.5,8.5,0,0,0-.6-3.5A4.7,4.7,0,0,0,207.4,94.7Z"/><path class="cls-1" d="M229.6,95.5a8.3,8.3,0,0,0-3.2-1.7,10.3,10.3,0,0,0-3.5-.6,10.7,10.7,0,0,0-3.5.6,8.3,8.3,0,0,0-3.2,1.7,9.3,9.3,0,0,0-2.3,3.1,12.8,12.8,0,0,0-.8,4.7,12.2,12.2,0,0,0,.8,4.6,9.8,9.8,0,0,0,2.3,3.2,9.6,9.6,0,0,0,3.2,1.6,10.6,10.6,0,0,0,3.5.5,10.2,10.2,0,0,0,3.5-.5,9.6,9.6,0,0,0,3.2-1.6,9.8,9.8,0,0,0,2.3-3.2,12.2,12.2,0,0,0,.8-4.6,12.8,12.8,0,0,0-.8-4.7A9.3,9.3,0,0,0,229.6,95.5Zm-.7,11a9.2,9.2,0,0,1-1.1,2.9,5.8,5.8,0,0,1-1.9,1.9,6.8,6.8,0,0,1-6,0,5.8,5.8,0,0,1-1.9-1.9,9.2,9.2,0,0,1-1.1-2.9,16.6,16.6,0,0,1-.3-3.2,17.6,17.6,0,0,1,.3-3.3,8.6,8.6,0,0,1,1.1-2.8,6.1,6.1,0,0,1,1.9-2,6.8,6.8,0,0,1,6,0,6.1,6.1,0,0,1,1.9,2,8.6,8.6,0,0,1,1.1,2.8,17.6,17.6,0,0,1,.3,3.3A16.6,16.6,0,0,1,228.9,106.5Z"/><path class="cls-1" d="M251.1,95.5a7.6,7.6,0,0,0-3.2-1.7,10.3,10.3,0,0,0-3.5-.6,11.2,11.2,0,0,0-3.5.6,7.9,7.9,0,0,0-3.1,1.7,8.1,8.1,0,0,0-2.3,3.1,10.9,10.9,0,0,0-.9,4.7,10.5,10.5,0,0,0,.9,4.6,8.5,8.5,0,0,0,2.3,3.2,9.2,9.2,0,0,0,3.1,1.6,11,11,0,0,0,3.5.5,10.2,10.2,0,0,0,3.5-.5,8.8,8.8,0,0,0,3.2-1.6,9.8,9.8,0,0,0,2.3-3.2,10.5,10.5,0,0,0,.8-4.6,11,11,0,0,0-.8-4.7A9.3,9.3,0,0,0,251.1,95.5Zm-.7,11a12.4,12.4,0,0,1-1,2.9,6.1,6.1,0,0,1-2,1.9,5.6,5.6,0,0,1-3,.7,5.3,5.3,0,0,1-4.9-2.6,9.1,9.1,0,0,1-1-2.9,16.6,16.6,0,0,1-.3-3.2,17.6,17.6,0,0,1,.3-3.3,8.5,8.5,0,0,1,1-2.8,6.1,6.1,0,0,1,1.9-2,5.8,5.8,0,0,1,3-.7,5.6,5.6,0,0,1,3,.7,6.4,6.4,0,0,1,2,2,11.6,11.6,0,0,1,1,2.8,17.6,17.6,0,0,1,.3,3.3A16.6,16.6,0,0,1,250.4,106.5Z"/><path class="cls-1" d="M261.9,91c0-1.1,0-2.1.1-3.2a29.1,29.1,0,0,1,.1-3,16.3,16.3,0,0,1,.1-2.4l-1.8.2-1.8-.2c0,.6.1,1.4.1,2.4a29.1,29.1,0,0,1,.1,3c0,1.1.1,2.1.1,3.2v13.3c0,1.1-.1,2.1-.1,3.2s0,2-.1,3-.1,1.7-.1,2.3h3.6a15.5,15.5,0,0,1-.1-2.3c-.1-1-.1-2-.1-3s-.1-2.1-.1-3.2V91Z"/><path class="cls-1" d="M24.7,71.2a39.5,39.5,0,0,0,9.9,1.2l3.4-.2A34.6,34.6,0,0,0,52.7,68l2-8.5h0l-1.2-.6h-.1c-4.1,4.2-10.6,7.4-16.3,7.4-14,.1-21.7-11.7-21.9-28.7,0-11.6,4-24.1,13.4-28.5a17.9,17.9,0,0,1,7.8-1.7,17,17,0,0,1,8.5,2.4h.3a19,19,0,0,1,4.1,3.4,17.6,17.6,0,0,1,2.4,3h1.2C53.7,13,54.2,9.6,55,6.3h0A37.1,37.1,0,0,0,38.7,1.6H36.3l-3.2.2c-14,.9-25.8,8-30.7,22A49.2,49.2,0,0,0,0,39.3C.1,55.9,10.2,67.6,24.7,71.2Z"/><path class="cls-1" d="M162,70.3h0l6.9-.5c2.3,0,4.6.3,6.9.5l-.2-29.7c16.5-.1,28.4-3.9,28.3-21.5h0v-.5c-.1-4.5-1.4-8.1-3.7-10.7l-.2-.2-.8-.7-.3-.4-.9-.6-.4-.3L196.3,5h-.2c-3-1.6-7-2.3-11.8-2.3H161.7ZM189.7,21c0,5.2-1.6,10.2-6,12.6h0l-.3.2-1.8.7h-.5a34.3,34.3,0,0,1-5.5.6V8h5.7c3-.1,5.6,2.1,7.2,5.7A19.8,19.8,0,0,1,189.7,21Z"/><path class="cls-1" d="M126.2,70.6h0c2.3-.1,4.6-.5,6.9-.5s4.6.3,6.8.5h0V65.8l-.3-63-1.8.2a41.9,41.9,0,0,1-5,.3h-.4a22.3,22.3,0,0,1-3.6-.2l-2.9-.3h0Z"/><path class="cls-1" d="M75,70.4h31.1c-.1-.1-.1-.2-.1-.4l-.3-2.1c0-.6-.1-1.2-.1-1.7v-.8c.1-1.1.4-2.3.4-3.4h0a152.9,152.9,0,0,1-19.8,1.5H84.9V38.1H95.5a94.6,94.6,0,0,1,9.9.8h.2l-.3-1.8a19.4,19.4,0,0,1-.2-2.4,31.5,31.5,0,0,1,.5-4.3h-.1a75.9,75.9,0,0,1-11.2.9H84.8V10.2a113.7,113.7,0,0,1,17.8.8l3.3.5h.1a31.5,31.5,0,0,1-.5-4.3h0V6c.1-1,.3-2,.4-3H70.9l.3,53.7V70.4H75Z"/><path class="cls-1" d="M212,69.3c1.7-6.5,3.9-12.5,6.2-19.8h21.3c1.1,2.8,2,5.6,3,8.5s2.3,7.8,3.5,12h.1c2.6-.2,5.2-.5,7.8-.5h0c2.7,0,5.2.3,7.9.5h0l-7.7-20.4L236,1.5h-3.5a20.6,20.6,0,0,1-3.5-.2L203.3,69.8v.3h0c1.4-.1,2.9-.4,4.4-.4l2.7.2h1.5C211.9,69.8,211.9,69.5,212,69.3Zm8.6-25.8,8.5-23,8.3,22.9Z"/><path class="cls-1" d="M289.1,2.4Z"/><path class="cls-1" d="M373.6,50.8a42.1,42.1,0,0,1,1.2-4.9l-3.3-1.1c-.2,1-1.4,6.3-1.8,6.7s-3-3.4-4.1-4.4L363,49.6c.8.7,2.1,2,3.5,3.5-2,.9-5.4,2.2-7.2,3.1.8,1.5.8,1.8,1.6,3.2a73.7,73.7,0,0,1,7.5-3.3l-3.6,9.1c1.3.7,1.5,1,2.8,1.8,1.5-2.9,2.4-6.5,3.8-9.5.7.2,4.2,3.5,5,4.2l2-2.8-4.8-4.2,7.3-2.3-1-3.5Z"/><path class="cls-1" d="M394.3,107.8c-.5-4-2.5-12.7-2.6-14.9l-2.7.2c.1,1.1.5,2.4.5,3.4s.9,3.4,1.4,6a92.7,92.7,0,0,1-9.5-11l1.8-2.5a70.7,70.7,0,0,0,5.6-11.4c.2-.6.8-2.1,1.2-3.3a63,63,0,0,0,2.1-10.5,68.4,68.4,0,0,0-1.3-19.7l-1.4-4.9a86.1,86.1,0,0,0-4.3-9.7c-1.5-2.5-2.8-4.7-4.4-6.9s-3.7-4.7-3.9-5.2c1.3-1.9,4.2-5.7,5.6-7.6-.7,3.4-1.5,5.2-1.7,6.8,1.3.1,2.1.5,3.2.6,1.1-4.7,1-5.4,2.1-10,0-.1,1.4-7.1,1.3-7.2L371.8,4.1c.4,1.6.3,1.5.8,3.1L379,5.6l-6.1,8.6c-6.4-5.1-13.9-9-20.2-10.3-8.4-2.4-16.1-2.6-24.5-1.9a40.4,40.4,0,0,0-16.4,7.9c-1.7,1.6-4.1,3.9-5.5,5.5-.2,0-7.8-8.7-8.6-9.6l5.2.2c.1-1.7.2-1.8.3-3.5-4.8-.1-7.2-.2-14.1-.1,1.1,5.5,1.8,9.7,2.9,15.2l3-.8c.1-.1-.3-1.5-1.6-8.5,2.7,3.1,6.6,7.9,9.4,11A126.9,126.9,0,0,0,296,30.4a73.4,73.4,0,0,0-4.9,14.8c-.2.9-.3,2.2-.5,3.2s-.1,2.4-.3,4.8a85.2,85.2,0,0,0,.6,15.1c.3,1.3.6,3,.9,4.3a66.7,66.7,0,0,0,8.4,20.5c-1.6,1.4-2.9,2.2-4,3.1.1-.9.4-3.1.5-4.2h-2.9c.1,6.4-6,10.5-6.2,14.9,1.1.4,5.3-.1,9.1-.6a65.6,65.6,0,0,1,7.2-.7c-.2-1.1-.2-2.4-.3-3.3-1.7,0-5.1.6-6.9.7a35.6,35.6,0,0,1,6.6-5.7l3.3,3.8a58.4,58.4,0,0,0,9.4,7.7,12.6,12.6,0,0,0,3.1,1.4h0l4.8,2.1c1.7.5,3.4,1,5.3,1.4a48.4,48.4,0,0,0,13.2.5,65.3,65.3,0,0,0,12.2-2.8l4-1.5a56.6,56.6,0,0,0,19.5-14.3,72.7,72.7,0,0,0,7.8,8.6,33.1,33.1,0,0,0-6,.1,20.2,20.2,0,0,0,.1,2.8C387.7,107.7,392.1,107.6,394.3,107.8Zm-78-95.5a31.3,31.3,0,0,1,9.4-5c4.4-1.4,9.2-1.3,12.5-1.2a48.6,48.6,0,0,1,7.4.8c1.5.3,6.6,1,8.7,1.9s6.7,2.4,8.7,3.8,4.2,2.4,5,3.2l2.1,2.3-1.8,2.5-4.6,5.9c-3.3,4.2-7.7,10.4-8.4,11.1s-5.8,6.7-5.8,6.7L343,51.8l-8.4-8c-1.9-1.7-5.2-4.3-6.3-5.7s-8-7.6-9.3-9.1-9.8-10-9.8-10S314.5,13.4,316.3,12.3ZM303.4,90.1a12.9,12.9,0,0,1-1.5-2.4c-.5-.9-2.3-4.9-3-6.7a101.3,101.3,0,0,1-3.3-10.8c-.3-1.6-.9-7.7-1.2-9.5a58.7,58.7,0,0,1,.5-12.1,72.1,72.1,0,0,1,3.4-12.9,46.4,46.4,0,0,1,3.8-7.2c1.2-2.1,4-5.8,4-5.8s7.3,7.5,8.7,9.1l7.7,7.7c1.3,1.2,4.9,5.2,7,6.6s10.1,9.5,10.1,9.5l-7.4,8s-9.5,9.3-10.2,10.1-8.3,7.6-8.3,7.6L305.9,88ZM373,94.4c-.8.9-3.5,3.1-5.2,4.7s-7,4.4-9,5.7a52.8,52.8,0,0,1-9,3.3c-1.6.3-8.2,1.6-11.6,1.8h-1.1a42.4,42.4,0,0,1-12-1.8,45.3,45.3,0,0,1-10.4-5.7c-2-1.2-8.3-8.2-8.3-8.2s10.1-8.6,11.5-10.3,9.1-8.3,10.2-9.8,4.7-4.4,6.7-6.2,8.3-9.3,8.3-9.3l8.6,8.1,8.9,8.2a60.1,60.1,0,0,1,7.7,8l5,6.3,1.9,2.7Zm-8-22.5c-.8-.6-10.1-9.4-10.1-9.4l-8.2-7.3s6.4-8.7,8.3-10.2,4.8-5.8,6-7.1,5.2-6.5,6.5-8.1,6.2-8.6,6.2-8.6,4.7,4.9,5.8,6.9a69.6,69.6,0,0,1,3.8,7,47.8,47.8,0,0,1,3.9,12.4,59.9,59.9,0,0,1,.8,12.1,81.7,81.7,0,0,1-1,9.5c-.3,1.6-2.9,8.8-3.6,10.5-2.2,4.7-3.1,6.2-5,8.2C374.3,82.3,371,77.5,365,71.9Z"/><path class="cls-1" d="M338.8,87.9a13.6,13.6,0,0,1-7.7-4.9c-1.3-2-2.1-7.1-2.1-7.1a15.9,15.9,0,0,0-1.9,6.3c0,5.2.4,7.6,3,12s8.9,8,14.2,6.7c8.1-2,11.4-11.6,14.1-18.8-1,.5-3.7,2-5.1,2.9C348.5,87.7,344.3,88.7,338.8,87.9Zm2.2,9.5a9.1,9.1,0,0,1-6.7-3.2,22.3,22.3,0,0,1-3.9-6.7c5.9,5.4,15,5.5,21.4,1.5C352.3,89.1,347.6,97.4,341,97.4Z"/><path class="cls-1" d="M296.9,92h0Z"/><path class="cls-1" d="M328.9,31a73.9,73.9,0,0,1,7.5-3.4l-3.6,9.1c1.3.7,1.5,1.1,2.8,1.8,1.5-2.9,2.4-6.4,3.8-9.5.6.2,4.2,3.5,5,4.2l2-2.7-4.8-4.3,7.3-2.2-.9-3.5-6.4,1.9a37.7,37.7,0,0,1,1.2-4.9l-3.3-1.1a65,65,0,0,1-1.7,6.7c-1.2-1-3.1-3.4-4.2-4.4L331,21.1l3.5,3.6a78,78,0,0,0-7.2,3.1C328.1,29.2,328.1,29.6,328.9,31Z"/><path class="cls-1" d="M322.4,69.8c-4.8-4.8-9.6-8.1-11.8-17.5-.7-4,.5-8.6,1.3-9.7s5.2-5.1,5.2-5.1H316c-18.2,0-24.4,27.1-3.7,31.6A27,27,0,0,0,322.4,69.8Zm-10.3-4.7c-5.2,0-16-10.1-4.1-21.7-2.7,7.8.8,17,5.1,21.6Z"/></svg>