<svg id="Capa_1" data-name="Capa 1" xmlns="http://www.w3.org/2000/svg" viewBox="0 0 85 84.8"><defs><style>.cls-1{fill:#c39b52;}.cls-2{fill:#ccaf78;}.cls-3{fill:#26333a;}.cls-4{fill:#4b4a4b;}</style></defs><title>Icono progreso</title><path class="cls-1" d="M19.8,29.6v41A1.4,1.4,0,0,1,18.4,72H7.1a5.8,5.8,0,0,0-5.7,5.4V33.8a5.6,5.6,0,0,1,1.7-4,5.4,5.4,0,0,1,4-1.7H18.4a1.5,1.5,0,0,1,1.4,1.5"/><path class="cls-1" d="M59.4,7.1l2.1-.2Z"/><path class="cls-1" d="M67.1,16.8a10,10,0,0,0-7.7-9.7,10,10,0,0,0,0,19.4A10,10,0,0,0,67.1,16.8Z"/><path class="cls-1" d="M60.5,26.7l-1.1-.2Z"/><path class="cls-1" d="M61.5,26.7h0Z"/><path class="cls-2" d="M61.5,6.9a9.9,9.9,0,0,1,0,19.8,9.9,9.9,0,1,0,0-19.8Z"/><path class="cls-2" d="M60.5,26.7Z"/><polygon class="cls-2" points="59.4 26.5 59.4 26.5 59.4 26.5 59.4 26.5"/><polygon class="cls-2" points="59.4 7.1 59.4 7.1 59.4 7.1 59.4 7.1"/><path class="cls-2" d="M71.3,16.8a9.8,9.8,0,0,0-9.8-9.9l-2.1.2h0a10,10,0,0,1,0,19.4h0l1.1.2h1A9.8,9.8,0,0,0,71.3,16.8Z"/><path class="cls-2" d="M83.5,35.2V81.9a1.5,1.5,0,0,1-1.4,1.5H73.6L68,76.3l-5.7,7.1H7.4a6,6,0,0,1-6-5.7v-.3A5.8,5.8,0,0,1,7.1,72H18.4a1.4,1.4,0,0,0,1.4-1.4V33.8H38.2l4.3,5.7,4.2-5.7H51l.4.5a41.7,41.7,0,0,0,4.9,6.2c-2.4,1-3.9,2.7-3.9,4.6s4.1,5.7,9.2,5.7,9.2-2.5,9.2-5.7-1.5-3.6-3.9-4.6a32.6,32.6,0,0,0,4.9-6.2,1,1,0,0,0,.4-.5h9.9a1.4,1.4,0,0,1,1.4,1.4"/><path class="cls-3" d="M35.9,40.1a1.8,1.8,0,0,0-.9-.6,1.4,1.4,0,0,0-1.1.2l-2.4,1.6-2.4-1.6a1.5,1.5,0,0,0-2,.4,1.6,1.6,0,0,0,.4,2l1.4.9-1.4,1a1.4,1.4,0,0,0-.4,1.9,1.5,1.5,0,0,0,2,.4l2.4-1.6,2.4,1.6a1.4,1.4,0,0,0,1.4.1,1.4,1.4,0,0,0,.2-2.4l-1.4-1,1.4-.9a1.8,1.8,0,0,0,.6-.9,1.4,1.4,0,0,0-.2-1.1"/><path class="cls-3" d="M55,67a1.5,1.5,0,0,0-2-.4l-4.2,3-4.1-3a1.5,1.5,0,0,0-2,.4,1.3,1.3,0,0,0,.4,1.9l3.3,2.4-3.3,2.4A1.4,1.4,0,1,0,44.7,76l4.1-2.9L53,76a1.4,1.4,0,1,0,1.6-2.3l-3.3-2.4,3.3-2.4A1.3,1.3,0,0,0,55,67"/><path class="cls-3" d="M75.2,54.7a7,7,0,0,0-2-.8,9.9,9.9,0,0,0-2.4-.3A1.4,1.4,0,0,0,69.4,55a1.5,1.5,0,0,0,1.4,1.5,3.7,3.7,0,0,1,1.8.2,3.5,3.5,0,0,1,1.3.5,1.4,1.4,0,0,0,1.4-.1,1.2,1.2,0,0,0,.7-1.2,1.3,1.3,0,0,0-.8-1.2Z"/><path class="cls-3" d="M64.8,55.7l-1.3,1.1-1.2,1-1.1.8a1.4,1.4,0,0,0-.6,1.9,1.4,1.4,0,0,0,1.9.6L64.1,60l1.3-1.1,1.1-1a1.6,1.6,0,0,0,.6-1.3,1.7,1.7,0,0,0-.9-1.1,1.4,1.4,0,0,0-1.4.2"/><path class="cls-3" d="M56.3,59.1l-1.4-.5-1.1-.8a1.4,1.4,0,0,0-2.3.9A1.3,1.3,0,0,0,52,60a9.1,9.1,0,0,0,1.6,1.1,6.8,6.8,0,0,0,2,.7h.3a1.5,1.5,0,0,0,1.4-1.3,1.3,1.3,0,0,0-1-1.5"/><path class="cls-3" d="M45.3,56.5a5.5,5.5,0,0,1,1.8.2,3.5,3.5,0,0,1,1.3.5,1.6,1.6,0,0,0,1.5-.1,1.3,1.3,0,0,0,.6-1.2,1.4,1.4,0,0,0-.7-1.2,8.4,8.4,0,0,0-2-.8,10.7,10.7,0,0,0-2.5-.3A1.4,1.4,0,0,0,43.9,55a1.5,1.5,0,0,0,1.4,1.5"/><path class="cls-3" d="M39.3,55.7,38,56.8l-1.2,1a1.5,1.5,0,0,0-.2,2,1.4,1.4,0,0,0,2,.2l1.3-1.1,1.1-1a1.6,1.6,0,0,0,.6-1.3,1.4,1.4,0,0,0-.9-1.1,1.4,1.4,0,0,0-1.4.2"/><path class="cls-3" d="M32.6,59.3l-1.8-.2-1.3-.5a1.4,1.4,0,0,0-1.5,0,1.7,1.7,0,0,0-.7,1.3,2,2,0,0,0,.8,1.2,6.8,6.8,0,0,0,2,.7,10.1,10.1,0,0,0,2.5.3,1.4,1.4,0,0,0,0-2.8"/><path class="cls-3" d="M24.3,54.7a8.4,8.4,0,0,0-2-.8,10.1,10.1,0,0,0-2.5-.3A1.4,1.4,0,0,0,18.4,55a1.5,1.5,0,0,0,1.4,1.5,3.7,3.7,0,0,1,1.8.2,2.9,2.9,0,0,1,1.3.5l1.2.7a1.2,1.2,0,0,0,1.4.3,1.4,1.4,0,0,0,.9-1.2,1.2,1.2,0,0,0-.6-1.3,7.8,7.8,0,0,0-1.5-1"/><path class="cls-3" d="M82.1,32.4H74.6a31.8,31.8,0,0,0,4-15.4A16.8,16.8,0,0,0,70.1,2.3a16.7,16.7,0,0,0-17,0A17,17,0,0,0,44.6,17a31.8,31.8,0,0,0,4,15.4H46.7a1.4,1.4,0,0,0-1.1.6l-3.1,4.1L39.4,33a1.4,1.4,0,0,0-1.2-.6h-17V29.6a2.8,2.8,0,0,0-2.8-2.9H7.1a7.1,7.1,0,0,0-5,2.1,6.7,6.7,0,0,0-2.1,5V77.9a7.3,7.3,0,0,0,1.9,4.5,7.5,7.5,0,0,0,4.8,2.3H62.3a1.4,1.4,0,0,0,1.1-.6L68,78.5l4.5,5.7a1.4,1.4,0,0,0,1.1.6h8.5A2.9,2.9,0,0,0,85,81.9V35.2A2.9,2.9,0,0,0,82.1,32.4Zm-29-15.6a8.5,8.5,0,1,1,14.6,6,8.7,8.7,0,0,1-9.3,1.9A8.5,8.5,0,0,1,53.1,16.8ZM2.8,33.8a4.3,4.3,0,0,1,1.3-3,4.1,4.1,0,0,1,3-1.2H8.5v4.2a1.4,1.4,0,1,0,2.8,0V29.6h7.1v41H14.2V66.4A1.5,1.5,0,0,0,12.7,65a1.4,1.4,0,0,0-1.4,1.4v4.2H7.1a6.8,6.8,0,0,0-4.3,1.5ZM82.1,59.1h-.3l-1.4-.5-1.1-.8a1.4,1.4,0,0,0-1.4-.2,1.3,1.3,0,0,0-.9,1.1,1.3,1.3,0,0,0,.5,1.3,9.1,9.1,0,0,0,1.6,1.1,6.8,6.8,0,0,0,2,.7l1,.2V81.9H74.3l-5.2-6.5a1.6,1.6,0,0,0-1.1-.5,1.3,1.3,0,0,0-1.1.5l-5.3,6.5H29.7V77.7a1.4,1.4,0,1,0-2.8,0v4.2H7.4A4.8,4.8,0,0,1,4,80.5a4.2,4.2,0,0,1-1.2-3,4.3,4.3,0,0,1,4.3-4.1H18.4a2.7,2.7,0,0,0,2.8-2.8V35.2H37.5l3.8,5.1a1.4,1.4,0,0,0,1.2.6,1.4,1.4,0,0,0,1.1-.6l3.8-5.1h2.9A44.9,44.9,0,0,0,54,40.1a6.3,6.3,0,0,0-3,5c0,4,4.6,7.1,10.6,7.1s10.6-3.1,10.6-7.1a6.3,6.3,0,0,0-3-5c1.3-1.5,2.6-3.2,3.8-4.9h9.1Z"/><path class="cls-4" d="M66.9,40.5l-1.7,1.7a4.1,4.1,0,0,1,1.3,2.9c0,2.7-3,4.9-7,5.5l2.1.2c5.1,0,9.2-2.5,9.2-5.7s-1.5-3.6-3.9-4.6"/></svg>