<svg id="Capa_1" data-name="Capa 1" xmlns="http://www.w3.org/2000/svg" viewBox="0 0 94.8 75"><defs><style>.cls-1{fill:#ccaf78;}.cls-2{fill:#c39b52;}.cls-3{fill:#26333a;}</style></defs><title>Icono leer</title><path class="cls-1" d="M25.1,1.4h0a7.9,7.9,0,0,0-7.9,7.8V73.6H57.4a7.8,7.8,0,0,0,7.8-7.8V9.2A7.8,7.8,0,0,1,73,1.4Z"/><path class="cls-1" d="M75.3,6.2a7.9,7.9,0,0,1,7.2-4.8h0A7.9,7.9,0,0,0,75.3,6.2Z"/><path class="cls-2" d="M82.5,1.4h0Z"/><path class="cls-2" d="M90.4,9.7c-.1-4.8-3.6-8.3-7.8-8.3H73a7.8,7.8,0,0,0-7.8,7.8V65.8a7.8,7.8,0,0,1-7.8,7.8h9.5a7.8,7.8,0,0,0,7.8-7.8V9.7Z"/><path class="cls-2" d="M58.8,65.3H1.4c0,4.9,3.5,8.3,7.8,8.3H66.7c-4.3,0-7.8-3.4-7.9-8.3"/><path class="cls-1" d="M53.6,50.5c1.6-5,3-10.2,6.5-14.1,7.5-8.5,22.5-11,33.4-10.8A95.2,95.2,0,0,0,83.6,35c-3.8,4.2-12.2,9.7-16.3,11-6.3,1.9-9.2,2.3-13.7,4.5"/><path class="cls-3" d="M68.1,15.6a1.4,1.4,0,0,0-1.4-1.4H37.1a1.4,1.4,0,1,0,0,2.8H66.7a1.4,1.4,0,0,0,1.4-1.4"/><path class="cls-3" d="M25.9,17h4.7a1.4,1.4,0,0,0,0-2.8H25.9a1.4,1.4,0,1,0,0,2.8"/><path class="cls-3" d="M25.9,56.8a1.5,1.5,0,0,0-1.4,1.4,1.4,1.4,0,0,0,1.4,1.4H40.5a1.4,1.4,0,0,0,1.4-1.4,1.5,1.5,0,0,0-1.4-1.4Z"/><path class="cls-3" d="M47.7,44a1.4,1.4,0,0,0-1.4-1.4H25.9A1.5,1.5,0,0,0,24.5,44a1.4,1.4,0,0,0,1.4,1.4H46.3A1.4,1.4,0,0,0,47.7,44"/><path class="cls-3" d="M57.6,29.8a1.4,1.4,0,0,0-1.4-1.4H25.9a1.4,1.4,0,0,0,0,2.8H56.2a1.4,1.4,0,0,0,1.4-1.4"/><path class="cls-3" d="M74.7,47.6a1.3,1.3,0,0,0-1.4,1.3V65.8a6.4,6.4,0,0,1-6.4,6.4h-.2c-3.7,0-6.4-2.9-6.5-6.9a1.4,1.4,0,0,0-1.4-1.4H18.6V9.2a6.5,6.5,0,0,1,6.5-6.4H75.9a.1.1,0,0,1-.1.1c0,.1-.1.1-.1.2h-.2c0,.1-.1.1-.1.2l-.2.2a.1.1,0,0,1-.1.1v.4l-.2.2c0,.1,0,.1-.1.2v.2a.3.3,0,0,0-.1.2V6.3c0,.1-.1.1-.1.2v.2a.3.3,0,0,0-.1.2.4.4,0,0,1-.1.3V8.3a.4.4,0,0,0-.1.3v13a1.4,1.4,0,1,0,2.8,0V11.1H90.4a1.8,1.8,0,0,0,1-.4,1.8,1.8,0,0,0,.4-1c-.1-5.5-4-9.7-9.3-9.7H25.1a9.2,9.2,0,0,0-9.2,9.2V63.9H1.4a1.8,1.8,0,0,0-1,.4,1.4,1.4,0,0,0-.4,1C.1,70.9,4,75,9.2,75H66.9a9.2,9.2,0,0,0,9.2-9.2V48.9a1.3,1.3,0,0,0-1.4-1.3M76.2,8.3h0V7.8h.1V7.5h.1V7.2a.1.1,0,0,1,.1-.1h0V6.8h0c0-.1.1-.1.1-.2h0a.1.1,0,0,0,.1-.1c0-.1.1-.1.1-.2h0a4.3,4.3,0,0,1,.4-.7h0l.2-.2h0l.2-.2h0c.1-.1.1-.2.2-.2h0l.2-.2h0l.2-.2h0a6,6,0,0,1,3.1-1.5h0c.1,0,.2,0,.2-.1h1a6.5,6.5,0,0,1,6.3,5.5H76.2M9.2,72.2a6.4,6.4,0,0,1-6.3-5.5H57.6v.6a.4.4,0,0,1,.1.3h0a.4.4,0,0,1,.1.3h0a.4.4,0,0,1,.1.3v.4a.1.1,0,0,1,.1.1c0,.1.1.2.1.3h.1v.2a.3.3,0,0,1,.1.2.3.3,0,0,1,.1.2v.2c0,.1.1.1.1.2h.1c.1.1.1.3.2.4h0l.2.3h.1v.2h.1c.1.1.1.2.2.2s.1.1.1.2h.1l.2.2H9.2Z"/><path class="cls-3" d="M94.8,25.6h0v-.4h0a.3.3,0,0,1-.1-.2h0v-.2h-.2a.1.1,0,0,1-.1-.1h-.8C81.9,23.9,66.7,26.7,59,35.5c-3.3,3.8-4.9,8.7-6.4,13.4a3.6,3.6,0,0,1-.4,1.1h0l-2.3,8.3a1.5,1.5,0,0,0,.9,1.8h.4a1.5,1.5,0,0,0,1.4-1l2.1-7.8a49.8,49.8,0,0,1,7.7-2.6c1.5-.4,3.3-.8,5.3-1.5,4.5-1.3,13-7.1,17-11.3a91.8,91.8,0,0,1,9.6-9.3h.2c0-.1.1-.1.1-.2h0c.1-.1.1-.2.2-.4h0v-.2h0M61.1,37.3c3.2-3.7,8.2-6.5,14.8-8.2a44.4,44.4,0,0,1,5.5-1.2,101.6,101.6,0,0,0-12.1,7,109.4,109.4,0,0,0-12.1,9.2,24.1,24.1,0,0,1,3.9-6.8m21.5-3.2c-3.8,4.1-12.1,9.5-15.7,10.6l-5.2,1.4-3.8,1.1,2-1.7a118.7,118.7,0,0,1,10.9-8.3c7-4.7,13.4-8,18-9.4-2,1.9-4,3.9-6.2,6.3"/></svg>