<svg id="Capa_1" data-name="Capa 1" xmlns="http://www.w3.org/2000/svg" viewBox="0 0 28.4 28.4"><defs><style>.cls-1,.cls-2{fill:#27333b;stroke:#95bfcb;stroke-miterlimit:10;}.cls-2{stroke-width:0.94px;}.cls-3{fill:#95bfcb;}</style></defs><title>Ciudades</title><path class="cls-1" d="M27.9,14.2A13.7,13.7,0,1,1,14.2.5,13.8,13.8,0,0,1,27.9,14.2"/><path class="cls-2" d="M27.9,14.2A13.7,13.7,0,1,1,14.2.5,13.8,13.8,0,0,1,27.9,14.2Z"/><path class="cls-3" d="M13.7,24.5l-.3-.5c-.3-.4-6.2-9.1-6.2-12.8a7,7,0,0,1,14,0c0,3.7-6.8,12.4-7.1,12.8Zm.5-19.4a6,6,0,0,0-6,6.1c0,2.9,4.3,9.7,5.6,11.7,1.4-1.9,6.4-8.8,6.4-11.7A6,6,0,0,0,14.2,5.1Z"/><path class="cls-3" d="M14.2,15.2a4.5,4.5,0,1,1,4.5-4.5A4.5,4.5,0,0,1,14.2,15.2Zm0-8a3.5,3.5,0,0,0,0,7,3.5,3.5,0,1,0,0-7Z"/></svg>