<svg id="Capa_1" data-name="Capa 1" xmlns="http://www.w3.org/2000/svg" viewBox="0 0 28.4 28.4"><defs><style>.cls-1,.cls-2{fill:#27333b;stroke:#95bfcb;stroke-miterlimit:10;}.cls-2{stroke-width:0.94px;}.cls-3{fill:#95bfcb;}</style></defs><title>herramientas 3</title><path class="cls-1" d="M27.9,14.2A13.7,13.7,0,1,1,14.2.5,13.8,13.8,0,0,1,27.9,14.2"/><path class="cls-2" d="M27.9,14.2A13.7,13.7,0,1,1,14.2.5,13.8,13.8,0,0,1,27.9,14.2Z"/><path class="cls-3" d="M20.9,17h0a3.4,3.4,0,0,0-.1-1,5.6,5.6,0,0,0-1.1-2l-.3-.3-1-1a3.1,3.1,0,0,1-.6-.6,3.4,3.4,0,0,1-.1-1.4,3.6,3.6,0,0,1,.2-1,4.9,4.9,0,0,0,.4-1,2.5,2.5,0,0,0,.2-1.2c0-.4-.2-.7-.7-1L17,6.2a7.3,7.3,0,0,0-2.7-.4h-.2a7.9,7.9,0,0,0-2.8.4c-.9.3-1.4.7-1.5,1.3A5,5,0,0,0,10,8.7l.4,1a1.9,1.9,0,0,1,.3,1,3.4,3.4,0,0,1-.1,1.4l-.6.6-1,1-.3.3a5.6,5.6,0,0,0-1.1,2c-.1.3-.1.7-.2,1h0v.2a3.4,3.4,0,0,0,.1,1,1.6,1.6,0,0,0,.3.9,4.2,4.2,0,0,0,1.1,1.8,7.4,7.4,0,0,0,4.7,1.7h.6a7.4,7.4,0,0,0,5.2-1.7,3.6,3.6,0,0,0,1.2-1.8l.3-.9a3.4,3.4,0,0,0,0-1ZM16.6,8.3a7.5,7.5,0,0,1-2.3.3h-.2a8.8,8.8,0,0,1-2.4-.3c-.7-.2-1-.4-1-.6s.3-.5,1-.7l2.4-.2h.2l2.3.2c.7.2,1.1.4,1.1.7S17.3,8.1,16.6,8.3Z"/></svg>