<svg id="Capa_1" data-name="Capa 1" xmlns="http://www.w3.org/2000/svg" viewBox="0 0 28.4 28.4"><defs><style>.cls-1,.cls-2{fill:#27333b;stroke:#95bfcb;stroke-miterlimit:10;}.cls-2{stroke-width:0.94px;}.cls-3{fill:#95bfcb;}</style></defs><title>herramientas 2</title><path class="cls-1" d="M27.9,14.2A13.7,13.7,0,1,1,14.2.5,13.8,13.8,0,0,1,27.9,14.2"/><path class="cls-2" d="M27.9,14.2A13.7,13.7,0,1,1,14.2.5,13.8,13.8,0,0,1,27.9,14.2Z"/><path class="cls-3" d="M21.4,7.1h0V6.9h-.5c-4.1.4-9.4,2.2-11.7,5.8a12.7,12.7,0,0,0-1.6,5.1.6.6,0,0,0-.1.4h0L7,21.1a.4.4,0,0,0,.4.6h.2c.2,0,.3-.2.4-.4l.4-2.9A10.5,10.5,0,0,1,11,17.1l1.8-.8a21.4,21.4,0,0,0,5.5-5,29.6,29.6,0,0,1,3-3.8h.1V7.2h0M9.9,13a10.8,10.8,0,0,1,4.9-3.7l1.9-.7a48.3,48.3,0,0,0-4,3.1,28.3,28.3,0,0,0-3.8,4,7.9,7.9,0,0,1,1-2.7m7.5-2.3a16.3,16.3,0,0,1-5,4.6l-1.8.8-1.3.6.6-.7a38.4,38.4,0,0,1,3.5-3.5,26.4,26.4,0,0,1,5.9-4.3l-1.9,2.5"/></svg>