<svg xmlns="http://www.w3.org/2000/svg" xmlns:xlink="http://www.w3.org/1999/xlink" viewBox="0 0 801.5 381.5"><defs><style>.cls-1{fill:none;}.cls-2{isolation:isolate;}.cls-3{fill:#1a321b;}.cls-4{fill:#111b12;}.cls-5{fill:#303721;}.cls-6{fill:#00502c;}.cls-7{fill:#013825;}.cls-8{fill:url(#Degradado_sin_nombre_11);}.cls-9{fill:#745013;}.cls-10{fill:#95783f;}.cls-11{fill:#98681d;}.cls-12,.cls-13{fill:#cdac6f;}.cls-12{mix-blend-mode:color;}.cls-14{opacity:0.6;}.cls-15{clip-path:url(#clip-path);}.cls-16{fill:#a48345;}.cls-17{fill:#1f1705;}.cls-18{fill:#411111;}.cls-19{fill:#49340f;}.cls-20{fill:#e6a99e;}.cls-21{fill:#332403;}.cls-22{fill:#c39b52;}.cls-23{fill:#ece3b0;}.cls-24{fill:#d0d0d0;}.cls-25{fill:#fff;}.cls-26{fill:#412d1a;}.cls-27{fill:#69472f;}.cls-28{fill:#d9bf90;}.cls-29{fill:#f0ede2;}.cls-30{fill:#e4decb;}.cls-31{fill:#e1cda8;}</style><linearGradient id="Degradado_sin_nombre_11" y1="309.62" x2="801.47" y2="309.62" gradientUnits="userSpaceOnUse"><stop offset="0" stop-color="#987e24"/><stop offset="0.25" stop-color="#ac9442"/><stop offset="0.56" stop-color="#c0a961"/><stop offset="0.82" stop-color="#ccb673"/><stop offset="1" stop-color="#d0bb7a"/><stop offset="1" stop-color="#ad8024"/><stop offset="1" stop-color="#cdb671"/><stop offset="1" stop-color="#cbb470"/><stop offset="1" stop-color="#c4ae6e"/><stop offset="1" stop-color="#b8a26b"/><stop offset="1" stop-color="#a89166"/><stop offset="1" stop-color="#927c5f"/><stop offset="1" stop-color="#766157"/><stop offset="1" stop-color="#57434e"/><stop offset="1" stop-color="#513d4c"/></linearGradient><clipPath id="clip-path"><rect class="cls-1" x="275" y="18.3" width="11.8" height="33.25"/></clipPath></defs><title>Chicos</title><g class="cls-2"><g id="Capa_1" data-name="Capa 1"><path class="cls-3" d="M128,223.6a17.6,17.6,0,0,1,2.7-4,11.8,11.8,0,0,1,3.2-2.6c2.3-1.5,4.8-2.5,7.2-4.1s4.5-3.3,7-4.8,5.6-3,7.1-.3a1.1,1.1,0,0,1,.3.8h0a35.6,35.6,0,0,0,1.4-6.3l.3-3.5c.1-1.1.1-2.1.1-3.2a78.7,78.7,0,0,0-1.2-11.8c-.2-1.7-2.9-2.1-3.1-.2-1,9-8.2,14.9-13.8,21.6h0a13.9,13.9,0,0,0-3.8,3.5,43.4,43.4,0,0,0-7.4,14.9l-.6,2h0Z"/><path class="cls-3" d="M106.8,287.7l1.9,1a1.5,1.5,0,0,0,.8.8l1.2.4,3.8-2.5a24.7,24.7,0,0,1-6.3-2.6C106.5,283.7,105.1,286.6,106.8,287.7Z"/><path class="cls-3" d="M150.6,271.6c5.1-1.6,10.3-2.9,15.6-4.2.5-1.1,1.2-2.1,1.8-3.2l-1.2-6c-1.7-7.5-3.8-15-5.7-22.5-.5-1.7-3.4-1.1-3.2.6.9,6.9-2,13.2-3.9,19.6A93.5,93.5,0,0,0,150.6,271.6Z"/><path class="cls-3" d="M202.3,244.3a13.6,13.6,0,0,0-2.7-.4,28.5,28.5,0,0,0-12,1.3l-1.2.5,1.2-.5c-2.4,4.6-7.3,8.1-10.2,12.3-5.7,8.3-7.5,19.1-2.9,28.2l2.7-6.2c2.6-6.2,4.7-12.7,7.8-18.7s7.5-14.1,14.8-13.6l1.8.3C203.7,247.9,204.2,244.8,202.3,244.3Z"/><path class="cls-4" d="M173.3,265.8a30.6,30.6,0,0,1,4.1-8.3c2.9-4.2,7.8-7.7,10.2-12.3l-1.2.5-3.6,1.7a35.1,35.1,0,0,0-5.6,4.4,52.7,52.7,0,0,0-5.2,6.3c-1.2,1.7-2.3,3.4-3.3,5l-.7,1.1c-.6,1.1-1.3,2.1-1.8,3.2Z"/><path class="cls-4" d="M95.4,235.9c3.7,4.5,1.1,10.4,1.7,15.7l1.5,2.4h0a5.2,5.2,0,0,0-3.7,3.9l.6,1c2.9,5.3,6.2,10.3,11.5,13.7l1.5.8.5.3,1,.5.6.3.9.5.7.3.9.3.8.3.8.4.8.2.8.3.9.3.8.3,1,.3h.8a6,6,0,0,0,2,.6,21.3,21.3,0,0,0,4.9,2.1l4-1.8a25.9,25.9,0,0,1-7.1-2.9,1.2,1.2,0,0,0-.4-.8l-.2-.2-1-1.4-.3-.6-.3-.5c-.1-.4-.3-.8-.4-1.2a9.4,9.4,0,0,1-.4-1.6c-.1-.3-.1-.6-.2-.9v-.3a2.2,2.2,0,0,1-.1-.8,16.4,16.4,0,0,1-.2-2.2,19.3,19.3,0,0,1-.1-2.4h0v-5c0-.6-.1-1.1-.1-1.6a7.1,7.1,0,0,0-.1-1.4v-.4c-.1-.3-.1-.7-.2-1.1s-.1-.5-.1-.7h-.1a24.7,24.7,0,0,0-.6-2.9h0c-.2-.8-.5-1.5-.7-2.2l-.2-.5-.7-1.9-.8-1.6-1.2-2.3-.3-.6a3.5,3.5,0,0,1-.5-.8l-1.1-1.8c-1-1.5-2-3-3.1-4.4h0l-.3-.3a33.3,33.3,0,0,0-3.6-3.9,17.7,17.7,0,0,0-3.5-2.6l-2.8-1.7a27.2,27.2,0,0,1-5.1-3.2,53.7,53.7,0,0,1-6.6-7.7,1.7,1.7,0,0,0-2.4-.2h0l.2.2a78.1,78.1,0,0,1,15.3,24.3C99.9,237.1,94.5,234.8,95.4,235.9Z"/><path class="cls-4" d="M128.5,259a115.8,115.8,0,0,0,7,17.1l.4.6,4-1.5a111.5,111.5,0,0,1-6.9-15.3c-2-5.9-3.6-11.9-5-17.9a1.9,1.9,0,0,0,.8.3h3.5l.3-.2h.8l.3-.2h.3l.2-.2h.3l.3-.2.3-.2c0-.1.1-.1.2-.2l.3-.2.2-.2.3-.3h.2l.3-.3.2-.2.3-.3h.1l.4-.4h.1l.4-.5h0l1-1.2h0l1-1.2h0l.9-1.2h0l.9-1.3h0l.7-1,.2-.3.3-.6,1.4-2.1.8-1.2,2.4-3.6.5-.7.7-1.2c.5-.8,1-1.5,1.4-2.3a2.1,2.1,0,0,1,.4-.6l1.5-2.9.6-1.1h0a32.3,32.3,0,0,0,2.2-4.1,4,4,0,0,0,.5-2.6h0a1.1,1.1,0,0,0-.3-.8c-1.5-2.7-5.3-.8-7.1.3s-4.7,3.3-7,4.8-4.9,2.6-7.2,4.1a11.8,11.8,0,0,0-3.2,2.6,17.6,17.6,0,0,0-2.7,4l-.6,2h-.1v.2c0,.1-.1.2-.1.3h0c-.2,1.3-.6,3.4-.9,5.3h0a4.3,4.3,0,0,0-.2,1.1v.2c-.8-3.6-1.5-7.1-2.1-10.7s-4.5-2.2-4,.3C122.3,234.9,124.7,247.2,128.5,259Z"/><path class="cls-5" d="M46.2,310.4l1.3-.5a47,47,0,0,1-7.7-3.3c-.1-.1-.4-.3-.4-.4-6-7.1-3.5-17.6-9.3-24.8a3.3,3.3,0,0,0,.4-1.3,2.7,2.7,0,0,0-.7-2.2,3.5,3.5,0,0,0-2.2-.8h-.1a2.7,2.7,0,0,0-2.1.6,2.5,2.5,0,0,0-.5,2.2c0,.2.1.3.1.5a2.8,2.8,0,0,0,2.2,2.2h1a4.3,4.3,0,0,0,1.2-.5c5.1,6.5,3.6,15.7,7.7,22.6a56,56,0,0,1-4.5-4v-.2c-.1,0-.1,0-.1-.1l-3.9-3.9a25.8,25.8,0,0,0-4.1-3.3c-1.7-1.1-3.6-1.4-5.2-2.7a1.7,1.7,0,0,0-.4-2.4h-.2l-.6-.3a1.5,1.5,0,0,0-1.3-.1h-.2a1.8,1.8,0,0,0-1.5,1.3,2.4,2.4,0,0,0,.8,2.5h.1a1.7,1.7,0,0,0,1.8.3H18l.6-.4a8.6,8.6,0,0,0,3.3,1.7,20.5,20.5,0,0,1,5.9,4.2l1.2,1.2a8.7,8.7,0,0,0-4-.6c-3.2.2-6.4,1.9-9.4.2a2.4,2.4,0,0,0-.1-1.5,1.9,1.9,0,0,0-1.1-.9,1.5,1.5,0,0,0-.9-.2,1.8,1.8,0,0,0-1.5.7.5.5,0,0,0-.5.4c-.5,1.3-.3,3.2,1.1,3.8h.9a2.6,2.6,0,0,0,1.7-1.4,8.6,8.6,0,0,0,5.9.6c1.8-.3,3.6-.9,5.4-.7s3.6,1.2,5.2,2.4a45.1,45.1,0,0,0,5.1,4.6A34.2,34.2,0,0,0,46.2,310.4Z"/><path class="cls-5" d="M69,275.7a2.1,2.1,0,0,0,2.1.5,30.4,30.4,0,0,0,4.5,7.8c2.6,3.3,4.6,6.1,4,10.4a14.4,14.4,0,0,1-1.3,3.2h-.1l1.6-.6c.2-.6.5-1.1.7-1.6s.6-3.3,1.1-4.8,1.4-3.8,2-5.7a62.9,62.9,0,0,0,2.3-11.3c.1-.6-.9-.7-1,0a62.8,62.8,0,0,1-2.8,12.7c-.5,1.4-1.1,2.8-1.5,4.2a10.9,10.9,0,0,0-1.9-4.3c-2.5-3.5-5.1-6.6-6.7-10.7h0c.3-.4.7-.9.6-1.4h0v-.4a.7.7,0,0,0-.2-.7h0a1.4,1.4,0,0,0-.5-.8l-.3-.2a2,2,0,0,0-2,.1l-.4.3-.5.6a1.4,1.4,0,0,0-.3,1.3A1.6,1.6,0,0,0,69,275.7Z"/><path class="cls-5" d="M32.9,314.9c-.5.3-.1,1.2.5.9a26.6,26.6,0,0,1,7.7-2.9,25.3,25.3,0,0,1,2.3-1.2l1.1-.5-2,.4C39.3,312.3,35.8,313.1,32.9,314.9Z"/><path class="cls-5" d="M91.5,294.4a9.5,9.5,0,0,0,3.6-5.2c.1-.7-.8-1-1-.3a10.5,10.5,0,0,1-4.4,5.8Z"/><path class="cls-5" d="M17.5,263.9h.4l.9-.4a14,14,0,0,0,6.7,4c3,.7,6.1.8,8.6,2.7l.7.5c1.8,2.1,3.8,4.1,5.7,6.1a2.5,2.5,0,0,1,.4.7,40.9,40.9,0,0,0,3.1,8.9c1.7,3.9,3.4,7.9,5.3,11.7l.9,1.9q1.9,3.5,4.2,6.9l.9-.4c-1.5-2.3-2.9-4.7-4.3-7.2l-.7-1.3-.3-.7c0-.1-.2-.8-.2-1a23.6,23.6,0,0,1-.1-9.9h0c2.6-4.3,8.9-5.2,10.3-10.2h.5a2,2,0,0,0,.9-.5,3,3,0,0,0,.8-1.6h0a2.2,2.2,0,0,0-.3-1.6,2.6,2.6,0,0,0-2.3-1.1h0a2.3,2.3,0,0,0-1,.5l-.7.4c-1.2.9-.3,3.1.8,3.6H59c-1.2,4.1-6,5.5-8.9,8.3,1.9-7.7,5.9-15.3,5.9-23.4a2.6,2.6,0,0,0,1.9-1.3l.2-.5a2.4,2.4,0,0,0-.5-2.2,1.8,1.8,0,0,0-.7-.5,2.5,2.5,0,0,0-3.3,1.3,4.3,4.3,0,0,0-.1.5,3.3,3.3,0,0,0,0,1.4,2.5,2.5,0,0,0,.4.7l.7.5H55c0,4.7-1.3,9.2-2.8,13.7-2.1-3.8-3.8-7.8-3.8-12.2a3.2,3.2,0,0,0,1.7-3.4,1.4,1.4,0,0,0-.4-1,1.6,1.6,0,0,0-.7-.7,3.2,3.2,0,0,0-4.2.8,2.4,2.4,0,0,0-.1,2.7l.2.2a2,2,0,0,0,.8,1.2,1.1,1.1,0,0,0,.9.5h.8c.1,4.5,1.9,8.6,4,12.5a4.4,4.4,0,0,1,.2,1c-2,5.8-3.9,11.5-3.3,17.5-.9-2.1-1.9-4.2-2.8-6.4-1.7-3.9-3.4-7.8-3.9-12-.9-7.8,0-16,.3-23.8a3.8,3.8,0,0,0,2.8-2.4,3.3,3.3,0,0,0-.6-3.8.1.1,0,0,0-.1-.1,2.9,2.9,0,0,0-2.2-1.1,1.8,1.8,0,0,0-1,.1c-1.2.5-1.8,2.2-1.9,3.4h0a3,3,0,0,0,.2,2.3,2.2,2.2,0,0,0,.5.8,3.7,3.7,0,0,0,1.2.7h.1c-.3,7.9-1.2,16.1-.3,24-3.4-3.6-7-7.2-9.5-11.4a7.5,7.5,0,0,1-.7-1.2,1.1,1.1,0,0,1-.2-.5c-.7-2.3.6-4.8,1.6-6.8h.7a1.8,1.8,0,0,0,1.8-1.5h0a1.7,1.7,0,0,0,0-1,2,2,0,0,0-.9-.9h-.1l-.4-.2a1.5,1.5,0,0,0-1.3,0,1.9,1.9,0,0,0-1.1,1.6,1.1,1.1,0,0,0,.1.5,1.7,1.7,0,0,0,.3,1,17,17,0,0,0-1.8,4.9,42.8,42.8,0,0,1-2.3-11.3,3.1,3.1,0,0,0,1.8-2.5,2.6,2.6,0,0,0-.8-1.9,2.7,2.7,0,0,0-1.8-.7h-.5a2.7,2.7,0,0,0-1.7,1.6,1.5,1.5,0,0,0-.1.7,3.6,3.6,0,0,0,1.5,2.6l.6.2h0c.6,5.6,1.4,11,4.4,15.8a31.9,31.9,0,0,0,2.6,3.8,20.3,20.3,0,0,0-4.4-1.2c-3.6-.7-6.2-1.7-8.8-4.3a1.2,1.2,0,0,0,.5-1,2.8,2.8,0,0,0-.6-1.5c-.1-.1-.2-.3-.4-.4h0a2.1,2.1,0,0,0-1.7-.5h-.7a3.4,3.4,0,0,0-.6.6H16c-.2,0-.4.2-.5.5a2.9,2.9,0,0,0,.8,2.9A1.9,1.9,0,0,0,17.5,263.9Z"/><path class="cls-5" d="M64.6,291.6a2.5,2.5,0,0,0,1.2.1h.1a19.8,19.8,0,0,1,1,5.4c0,1.6-.3,3.2-.4,4.8v.2l1-.4a7.6,7.6,0,0,0,.1-1.5,20.2,20.2,0,0,0-.8-8.8,1.6,1.6,0,0,0,1.2-1.2,2,2,0,0,0-.3-1.7,2.2,2.2,0,0,0-1.8-1h-.1a3.8,3.8,0,0,0-1.6.6c0,.1-.1.1-.1.2A1.9,1.9,0,0,0,64.6,291.6Z"/><path class="cls-6" d="M364.5,177.8a147.6,147.6,0,0,0-24,2c3.9,1.8,7.4,4.5,11.1,6.4a20,20,0,0,0,4.8,1.9h0c3.6,1,7.4.7,11.1,1.1s8.2,1.8,12.3,2.8a106,106,0,0,0,12.5,2.4l12.4,1.6c.4,4.9.9,9.8,1.6,14.7l-.5-.2c-4.5-1.6-9-3.7-13.8-4.6a45.5,45.5,0,0,0-5.3-.4H376.4a37.8,37.8,0,0,0-8.9.7,33.5,33.5,0,0,0-6.3,2.2l-3.2,1.7-5.6,3.2a97,97,0,0,0-9.6,6.8c5.3-1.7,10.8-3.4,16.3-3.8h3.7a69.8,69.8,0,0,1,10.1,1.3,46.3,46.3,0,0,0,7.4.7c8,.1,15.8-3.2,23.8-2.9a7.6,7.6,0,0,0,2.9-.5c.4,2.3.9,4.6,1.4,6.9l-2.7-.9a60.4,60.4,0,0,0-15.7-2.9,65.8,65.8,0,0,0-13.3,1.1l-2,.2h0c-1.4.3-2.9.5-4.3.9-3.6.9-7,2.6-10.6,3.9s-7.4,2.1-11,1.3a59,59,0,0,0,14.1,4.9h.1a137,137,0,0,0,14.5,2.4h.8a32.8,32.8,0,0,0,6.2.4,50.3,50.3,0,0,0,8.6-1.7l10-2.7,6.6-1.8.6,2.4c.2.8.5,1.6.7,2.4a24.9,24.9,0,0,0-5.6,2.4l-.9.4a26.2,26.2,0,0,0-6.4,3.4,8,8,0,0,0-1.3,1.3c4.9-.1,9.8,0,14.7.2l1.2-2.1h.1c.2.7.5,1.4.7,2.2l5.1.3c-1-2.7-1.9-5.4-2.8-8.1l1.9,1.3,6.2,4.2h.2l4.1,2.9.7.7a216.8,216.8,0,0,1,24.1,4.2l-.3-.6v-.3a20.9,20.9,0,0,0-4.1-5.3l-.3-.3a49,49,0,0,0-11.1-8,22.3,22.3,0,0,0-6.6-2.2,28,28,0,0,0-5-.3H414.6c-.2-.8-.5-1.5-.7-2.2l-.9-3.6c1.8-.1,3.5-.5,5.3-.7a41.8,41.8,0,0,1,7.9.3l5,.8,5.1.9,10,1.7a19.6,19.6,0,0,0,4.8.5,15.5,15.5,0,0,0,3.1-.6c2.2-.6,4.3-1.6,6.5-2.2l2.3-.5c5-.7,10,1.7,14.2,4.5a33.9,33.9,0,0,0-10.4-10.9,28.7,28.7,0,0,0-6.2-3.4,32.6,32.6,0,0,0-4.4-1.5,37.1,37.1,0,0,0-16.9-.6,35.2,35.2,0,0,0-8.9,2.7l-.5.2a73.3,73.3,0,0,1-8,3.8,15.2,15.2,0,0,1-3.9.6c-2.1.2-4.3.4-5.8,1.5q-1.2-4.7-2.1-9.3a93.7,93.7,0,0,0,10.6,0h.4l5-.2h.2c2.8,0,5.7,0,8.5-.2a60,60,0,0,0,8.5-1.2h0l5.5-1.6,2.1-.6h0c3.5-1.2,7-2.5,10.7-2.6s9.9,2.2,14.4,4.7c-5.1-4.8-11.5-7.7-18.2-9.7l-5.8-1.4a33.2,33.2,0,0,0-7.7-1,29.1,29.1,0,0,0-6.5.9l-1,.3a53.5,53.5,0,0,0-6.8,2.1l-4.4,1.8h-.1a18,18,0,0,1-4.1,1.4l-.9.2h0c-1.5.3-3,.5-4.4.9l-1.9.6a16.3,16.3,0,0,0-4.7,2.5c-.7-3.6-1.3-7.2-1.7-10.8l1.8-.2c7-.9,14-2.2,21-3.8s13.1-3.3,19.5-5.4a20.9,20.9,0,0,0,5.5-2.4c3.1-2.1,4.9-5.6,6.6-9l3.1-6.4c-3.9,2.7-8,5.4-12.7,6.4a12.6,12.6,0,0,1-2.8.5l-3.5.2,3.6-3,1.6-1c5.1-3.1,11.5-3.8,17.6-4.1-1.7-1.4-3.8-1.9-5.9-2.5l-2.3-.6a47.3,47.3,0,0,0-12.6-1.8,45.9,45.9,0,0,0-10.4,1.6,35,35,0,0,0-4.6,1.4,73.8,73.8,0,0,0-12.8,5.8l-3.2,1.7a26.9,26.9,0,0,0-6.2,4.6c-.8.9-2.8,2.2-4.2,3.6,0-3.2.1-6.3.2-9.4a8.7,8.7,0,0,0,3.1-1.8l1.2-1c.8-.7,1.6-1.7,2.5-2.6h0a9.2,9.2,0,0,1,2.2-1.8,22.1,22.1,0,0,1,4.4-2.6c3.7-1.6,7.9-2.3,12-3.2a39.5,39.5,0,0,0,5.9-1.6l3.7-1.4a31.1,31.1,0,0,0,7.9-5.5l3.9-3.9a54.2,54.2,0,0,1,9-6c-6.2-.8-12.6-1.2-18.7,0a31.7,31.7,0,0,0-4.4,1.2c-2.8.8-5.6,2-8.4,3.1a34.2,34.2,0,0,0-8.9,4.6,40.6,40.6,0,0,0-6.7,7.6c-2.3,3.1-4.5,6.4-6.9,9.4a16,16,0,0,0-1.6,2.3c0-1.6.1-3.1.2-4.6a64.5,64.5,0,0,0-.4-9.9,21.1,21.1,0,0,0,1.9-2.3,10.5,10.5,0,0,1,4.4-2.7l1.2-.4c5.8-1.8,12.1-2.2,17.5-4.9a24.8,24.8,0,0,0,7.5-5.8,41.1,41.1,0,0,0,4.8-6.2c1.1-1.5,2-3.1,3-4.6a72.1,72.1,0,0,0,5.5-10.7c-4.7,3.4-9.6,6.7-14.6,9.7s-10,5.8-15.2,8.3a59.8,59.8,0,0,0-6.1,3.4,24.7,24.7,0,0,0-7.1,8.6,35,35,0,0,1-2.5,4.7l-.6.7a71.9,71.9,0,0,0-1.4-7.6,1.7,1.7,0,0,0-.1-.7l.5-.4a1,1,0,0,1,.4-.5c.5-.7.8-1.5,1.3-2.2l1-1.2a11.1,11.1,0,0,1,4-2.2h.1c2.8-1,5.9-1.5,8.6-2.9a25.7,25.7,0,0,0,5.2-4l2.1-1.8c1.3-1.4,2.7-2.7,3.9-4.2a40.3,40.3,0,0,0,3.9-5.6,92.3,92.3,0,0,0,4.2-8.3c1.5-3.5,2.9-7.1,5.6-9.8-6.1,2.8-12.3,5.6-17.8,9.2-1.6,1.1-3.2,2.2-4.7,3.4a44.2,44.2,0,0,0-5.3,5.3l-.2.2a90,90,0,0,0-5.9,8.8,6.4,6.4,0,0,1-.8,1.4l-4.9,8.2-.9,1.4-.9,1.8a82.6,82.6,0,0,1-.8-9.9c.2.1.6-.1,1.1-.6a6.4,6.4,0,0,0,1.1-2,25.7,25.7,0,0,1,2-4.5c.8-1.4,1.7-2.7,2.6-4h0c.9-1.1,1.9-2.2,2.9-3.2a24.2,24.2,0,0,1,3.1-2.5h0a56.4,56.4,0,0,0,6.3-4.6h0l1.3-1.2a27.3,27.3,0,0,0,5.5-11.2h0a47,47,0,0,0,.6-14.5,21,21,0,0,1-2.9,5.3c-.6.9-1.2,1.8-1.7,2.7h0a17.6,17.6,0,0,1-2.1,2.9l-9.5,9.9h0a42.2,42.2,0,0,0-5.3,5.9,32.1,32.1,0,0,0-3.7,7.7v.2a46.1,46.1,0,0,0-1.5,5.3,109.6,109.6,0,0,0-1-11.4c.9,0,1.7-1.9,2.1-2.4s2-3.3,3.1-4.9a28.8,28.8,0,0,1,2.2-2.7c1.8-1.9,3.8-3.4,5.6-5.2h0a29.2,29.2,0,0,0,4.8-6.3c2.7-4.3,4.5-9.3,6.3-14.1-3.2,2.6-6.3,5.2-9.3,8s-3.3,3-4.9,4.5l-2,2.1a6.4,6.4,0,0,0-1,1.3,20.6,20.6,0,0,0-2.1,4.2c-.8,2-1.6,4.1-2.5,6.1s-1.8,4.6-2.8,6.9a28.5,28.5,0,0,0-1.3-4.8,23.9,23.9,0,0,1,1.3-2.8c0-.1.1-.2.1-.3,1.9-4.1,2.5-8.2,3.1-12.4.3-2,.7-3.9,1.1-5.9s.6-2.1.8-3.1c1.2-5.2,2.1-10.5,2.8-15.8-2.8,4.5-5.4,9.1-7.9,13.7-1.5,2.6-2.9,5.3-4.2,8-.3.4-.5.9-.8,1.4a9,9,0,0,0-.8,2.3,7,7,0,0,0,.2,2.9,39.6,39.6,0,0,1,1.3,6.7c.3,1.7.6,3.4,1,5.1a3.6,3.6,0,0,0,.4,1.1,10.9,10.9,0,0,1,.5,1.7c-.4-.7-1-1.3-1.4-1.9a8.3,8.3,0,0,1-.8-1.2,13.3,13.3,0,0,1-.9-2.1l-1.1-2.6a38.8,38.8,0,0,0-3.8-6.9,39.8,39.8,0,0,0-4.6-5.3l-3.8-3.6a39.8,39.8,0,0,1-5.8-6.6c1.5,7,3.8,14.1,8.4,19.7a54.8,54.8,0,0,0,5.9,5.9h0l.6.5c-.1,1.1,2.7,2.9,3.5,3.5l2.3,1.8a8.7,8.7,0,0,0,2,1c1.2,6.3,1.3,12.7,1.4,19.1a24.2,24.2,0,0,1-3.6-2.7c-1.4-1.6-1.7-3.6-1.9-5.8a23.2,23.2,0,0,0-.7-5.2c-.8-2.7-2.9-4.8-4.9-6.9l-2.5-2.6c-2.2-2.4-4.4-4.9-6.5-7.4l-2-2.4a64.4,64.4,0,0,1-8.9-13.7,112.4,112.4,0,0,0,1.8,11.4q.8,3.9,1.8,7.8c.3.9.5,1.9.8,2.9,1,3.3,2.6,5.1,4.5,7.8a8.6,8.6,0,0,0,.7,1,48.1,48.1,0,0,0,4.7,6.2c4,4.4,9.2,7.6,14.4,10.5a5.2,5.2,0,0,0,2.3,1,82.5,82.5,0,0,0,.4,8.6l-.4-.2a53.2,53.2,0,0,1-6.1-3.5l-1.1-.8a47.7,47.7,0,0,1-8.6-8.8,1,1,0,0,0-.4-.5c-2.1-3.1-3.9-6.4-6.1-9.5h0a26.4,26.4,0,0,0-3.5-4c-1.3-1.2-2.8-2.3-4.2-3.5-2.9-2.5-6.1-5.5-8.1-8.8V107a27.3,27.3,0,0,0,.4,5.7,10.2,10.2,0,0,0,.6,2.5c.4,1.1.9,2.2,1.4,3.3l-2-.5-3.7-.7a74.1,74.1,0,0,0-14.9-.3,20.4,20.4,0,0,1,10.5,5.4,51.7,51.7,0,0,1,7.6,9.1,37.2,37.2,0,0,0,4.9,6.2,45.1,45.1,0,0,0,5.9,4.7h0c4.2,2.9,8.5,5.9,13.5,7,2.8.6,5.8.6,8.7,1s5.2,2.4,7.7,2.5h.1a142.5,142.5,0,0,1,.5,14.6l-.4-.2-3.7-1.4c-5.9-2.3-10.9-6.3-15.6-10.4h0l-.9-.9c-5.3-4.8-10.5-10-16.9-13.4-4.1-2.1-8.5-3.5-12.8-5.3s-8.5-3.9-11.6-7.4c.6,2.5,2.2,4.7,3.7,6.8l2.1,2.9c1.6,2.2,3.1,4.4,4.7,6.5l2,2.7a56.4,56.4,0,0,0,7.5,8.6,37.8,37.8,0,0,0,10.3,6.4,49.9,49.9,0,0,0,14.3,3.5,33.9,33.9,0,0,1,7.7,1c2.9.9,5.4,3.1,8.6,3.3h.9l-.3,10.4c-1.1-.8-2.9-1.1-3.7-1.6s-3.3-3.1-4.8-4.8a24.3,24.3,0,0,0-9.3-6.1,21.7,21.7,0,0,0-5.6-1.3,36.2,36.2,0,0,0-5.7,0h0l-4.4.2h0c-3.5.2-7,.1-10.2-1.3A24.2,24.2,0,0,1,355,162l-6.1-4.5c-1.5-1.2-3.1-2.4-3.8-4.2.4,5.4,3.3,10.3,7.1,14.3a51.2,51.2,0,0,0,4.9,4.4h0c2.5,1.9,5.2,3.7,7.9,5.5l.6.3h-1.1Zm55,2.9a43.1,43.1,0,0,1,10.2-.8h0c-5.2,2.5-10,6-14.7,9.5-2.3,1.8-4.9,3.1-7.4,4.7-.3-3.2-.5-6.4-.6-9.5v-.2C411.2,184.1,415.2,181.8,419.5,180.7Zm-16-30.8c-6.2-3.5-11.4-8.4-16.4-13.5a112.7,112.7,0,0,0,12.8,2.9,5.4,5.4,0,0,0,2.2,0q.3,3,.9,6c.3,1.6.6,3.2.8,4.8Zm-18.4,28.6a22.9,22.9,0,0,1,7.4.3c1.4.4,9,5.1,11.8,4.5,0,2.1,0,4.2.1,6.4s.1,1.7.1,2.6c-1-1-2.3-1.8-3.1-2.5a46.8,46.8,0,0,0-8.2-5.8,49.8,49.8,0,0,0-14.1-5.2Z"/><polygon class="cls-6" points="365.9 118.5 365.9 118.5 365.9 118.5 365.9 118.5 365.9 118.5"/><path class="cls-6" d="M387.1,136.4Z"/><path class="cls-5" d="M346.3,238.5h-.2l-2.9-2.2c-1.8-1.5-1.9-4.2-2.4-6.4a14.6,14.6,0,0,0-2.1-5.5c-.3-.4-.9-.1-.6.3,1.4,2,1.8,4.5,2.3,6.8s.5,3.1,1.4,4.3l-3.6-1.1-4.9-1.8a6,6,0,0,1-2.5-1.3,4.1,4.1,0,0,0-1-.9c-.4-.3-.8.3-.4.6s1.4,1.4,2.5,1.9l4.9,1.7,5,1.7c1.5.5,2.5,1.7,3.8,2.4l1.2.9h1.1Z"/><path class="cls-5" d="M328.9,202a16.1,16.1,0,0,1,3.5,1.2,8.1,8.1,0,0,1,2.4,3.1,23.2,23.2,0,0,0,1.6,4.4,28.9,28.9,0,0,0,5,6.5,21.9,21.9,0,0,0-3.3-1.2c-2.2-.5-4.6-1.2-6.9-1-.4.1-.4.8,0,.7a19.5,19.5,0,0,1,6.7,1,16.7,16.7,0,0,1,5.3,2.3c1.5,1.6,4.6,5.2,4.6,5.3a79.1,79.1,0,0,0,3,11.6c.1.4.7,2.3.7,2.4l.4,1h.7c-.2-.6-.4-1.5-.6-2s-.1-.6-.1-.7a16.2,16.2,0,0,1,1.6-6.8,6.9,6.9,0,0,0,.5-1.3c1.1-2.2,3.1-3.5,5.1-4.9l.8-.5a21.5,21.5,0,0,1,6.1-1.3h.4c1.2,1.4,2.3,3.2,4.2,3.7.4.1.6-.6.2-.7s-2.6-1.9-3.6-3.1,0-.1,0-.2l3.1-.2c2.4-.2,5.1-.5,6.8-2.5.3-.3-.2-.8-.5-.5-2.1,2.4-5.9,2.3-8.8,2.5a36.3,36.3,0,0,0-6.6,1c.9-.7,1.7-1.5,2.7-2.2a18.2,18.2,0,0,0,2.3-1.5c.9-.8,1.4-1.8,2.2-2.6l3-2.8a41.7,41.7,0,0,0,4.9-6.2c.3-.3-.3-.7-.5-.3a46.4,46.4,0,0,1-5.8,6.8l-2.2,2.1a6.9,6.9,0,0,0,.2-3.2c-.4-3-1.1-5.8-.7-8.9a.4.4,0,1,0-.7,0,20.2,20.2,0,0,0,.2,6.5c.5,2.9.9,5.2-.8,7.6a6.5,6.5,0,0,1-1.8,1.5c-2.3,1.5-4.2,3.4-6.5,5a14.5,14.5,0,0,0-3.4,3.1,13.8,13.8,0,0,1-.1-2.9,17.2,17.2,0,0,1,2.7-6.9,13,13,0,0,0,2.3-6c.1-.4-.6-.6-.6-.1a14.9,14.9,0,0,1-1.1,4,26.8,26.8,0,0,0-1.8,2.8,15,15,0,0,0-2.2,6.1,16.1,16.1,0,0,0,.1,3.1,4,4,0,0,1-.3,1.5v.5l-.7,1.5a18.6,18.6,0,0,0-1.3,4.6,83.7,83.7,0,0,1-4.1-23.8v-1.5a3.1,3.1,0,0,0,.2-.7,17.8,17.8,0,0,1,3-6h0c3-1.9,7.3-.3,9.7-3.3.3-.3-.2-.8-.5-.5-1.9,2.5-5.4,1.7-8.2,2.6,3.7-4.3,8.7-7.7,11.2-12.9.1-.4-.5-.8-.6-.4a30.5,30.5,0,0,1-6.3,8c-.1-3,.1-6.1,1.6-8.8.2-.4-.4-.7-.6-.4-1.6,2.9-1.8,6.2-1.7,9.4a1.9,1.9,0,0,1-.2.7c-3,2.9-6,5.8-7.5,9.6l.3-4.8a30.3,30.3,0,0,1,1.4-8.5c1.9-5.1,5.1-9.9,7.8-14.6.2-.4-.4-.7-.6-.4-2.7,4.8-5.9,9.6-7.9,14.8a58.6,58.6,0,0,1-2.2-9.9v-1.3c.3-1.7,1.9-2.8,3.2-3.7s0-.9-.4-.6a12.2,12.2,0,0,0-2.7,2.4,29.9,29.9,0,0,1,2.2-7.6c.2-.4-.5-.6-.7-.2-1.4,3.6-2.6,7.1-2.3,11,.1,1,.3,2,.4,3a14.2,14.2,0,0,0-2.2-2,11.1,11.1,0,0,1-4.2-5.8c-.1-.4-.8-.2-.6.2a8.5,8.5,0,0,0,2.9,4.9c1.6,1.4,3.4,2.4,4.4,4.3,0,.1.2.5.2.6l1.5,5.5c.1.1.1.4.1.5a27.4,27.4,0,0,0-.9,6.4c-.2,2.9-.4,5.8-.5,8.8v1.4a87.8,87.8,0,0,0,1.1,11.5,40.9,40.9,0,0,0-2.8-3.3l-.8-.8-.7-.7a37.3,37.3,0,0,1-5.2-6v-.3c-1.5-6.4,3.7-12.2,2-18.6-.1-.4-.8-.2-.7.2,1.5,5.8-2.6,11.1-2.2,16.8a31.2,31.2,0,0,1-1.5-3.9v-.2h-.1c-.4-1.2-.7-2.4-1.1-3.6a19.2,19.2,0,0,0-1.4-3.3c-.8-1.4-2.1-2.2-2.5-3.7s-.8-.3-.7.2a5,5,0,0,0,1.7,2.6,11.4,11.4,0,0,1,2.2,4.4c.1.3.3.7.4,1.1a6.2,6.2,0,0,0-2.2-1.7c-2.1-.8-4.8-.8-6-3.1-.2-.4-.8,0-.6.4A5.9,5.9,0,0,0,328.9,202Z"/><path class="cls-5" d="M217.4,242.7h.2c1.7,1.7,4.2,2,6.6,2.2l3,.3h.1c-1,1.2-2.1,2.7-3.6,3.1s-.3.8.1.7,3.1-2.2,4.3-3.6l.4-.2a24.7,24.7,0,0,1,6,1.3l.9.5,1.9,1.4.9-.2-1.5-1.1c-2.2-1.5-4.1-3.5-6.4-4.9a10.5,10.5,0,0,1-1.9-1.5c-1.7-2.5-1.3-4.8-.8-7.6a24.4,24.4,0,0,0,.3-6.6c-.1-.4-.8-.4-.7,0,.4,3.1-.3,5.9-.8,9a8.5,8.5,0,0,0,.3,3.2,22.9,22.9,0,0,0-2.3-2.1,47.5,47.5,0,0,1-5.7-6.9c-.2-.3-.8,0-.6.4a47.6,47.6,0,0,0,5,6.1c.9,1,2,1.8,3,2.8s1.3,1.8,2.1,2.6,1.6,1.1,2.3,1.6a15.1,15.1,0,0,1,2.8,2.2,37.5,37.5,0,0,0-6.7-1.1c-2.8-.2-6.5-.1-8.6-2.3a1.7,1.7,0,0,0-.2-1.4,1,1,0,0,0-.7-.5H217a4.1,4.1,0,0,0-1.6.3l-.3.2a1.6,1.6,0,0,0-.3.9v.2A1.8,1.8,0,0,0,217.4,242.7Z"/><path class="cls-5" d="M241,247.3a19.1,19.1,0,0,0-2.2-6.2,26.8,26.8,0,0,1-1.8-2.8,10.8,10.8,0,0,1-1.1-3.6h.1l.7-.4a1.4,1.4,0,0,0-.8-2.2h-.1a1.5,1.5,0,0,0-1.1.2h-.1a1.5,1.5,0,0,0-.8,1.1,1.7,1.7,0,0,0,.4,1.2,1,1,0,0,0,1.1.3,14.9,14.9,0,0,0,2.3,5.7,17.3,17.3,0,0,1,2.7,6.8v.6h.7Z"/><path class="cls-5" d="M243.2,225.2c-2.8-.8-6.3-.1-8.3-2.5-.3-.4-.8.1-.5.5,2.4,3,6.7,1.4,9.7,3.2h0a16.3,16.3,0,0,1,3.1,6,5.6,5.6,0,0,0,.1.7v.6a3.1,3.1,0,0,1,.1,1,102.2,102.2,0,0,1-1.3,12.4h1.2c1-1.2,2.9-3.4,4-4.5a15,15,0,0,1,5.3-2.4,24.3,24.3,0,0,1,6.1-1,1.3,1.3,0,0,0,.4.9l.4.3a1.2,1.2,0,0,0,1.5.1h.1l.3-.5a1.9,1.9,0,0,0,.2-.8h0a1.3,1.3,0,0,0-1-1.8h-1a1.6,1.6,0,0,0-.7.7c-.1,0-.1.1-.1.2s-.1.1-.1.2a19.3,19.3,0,0,0-6.3,1,16,16,0,0,0-3.3,1.1,22.7,22.7,0,0,0,4.9-6.5,33.4,33.4,0,0,0,1.7-4.4,7,7,0,0,1,2.4-3,13.3,13.3,0,0,1,3.5-1.3,5.1,5.1,0,0,0,3.6-2.6.3.3,0,1,0-.6-.3c-1.2,2.2-3.8,2.2-5.9,3.1a6,6,0,0,0-2.2,1.6l.3-1.1a14.2,14.2,0,0,1,2.3-4.4,6.5,6.5,0,0,0,1.7-2.6c.1-.4-.6-.6-.7-.2s-1.7,2.4-2.5,3.7a19.2,19.2,0,0,0-1.4,3.3l-1.2,3.6h0v.2c-.5,1.3-.9,2.6-1.5,3.8.3-5.7-3.8-11-2.3-16.7.1-.5-.5-.7-.6-.2-1.7,6.4,3.5,12.2,2,18.5a.8.8,0,0,1-.2.4,41.5,41.5,0,0,1-5.1,6c-.1.1-.7.6-.7.7l-.8.8a31.1,31.1,0,0,0-2.9,3.3,89.5,89.5,0,0,0,1.1-11.5,7.5,7.5,0,0,0,0-1.5c0-2.9-.2-5.8-.4-8.8a46.9,46.9,0,0,0-.9-6.4c-.1,0,0-.4,0-.5.5-1.8,1.1-3.6,1.5-5.5.1,0,.3-.5.3-.5,1-1.9,2.8-3,4.4-4.3a10.5,10.5,0,0,0,2.9-5c.1-.4-.5-.6-.7-.1A9.9,9.9,0,0,1,251,208a11.5,11.5,0,0,0-2.3,2.1,16.5,16.5,0,0,0,.4-3.1c.3-3.9-.9-7.4-2.3-11-.1-.4-.8-.2-.6.2a33.9,33.9,0,0,1,2.2,7.7,13.2,13.2,0,0,0-2.8-2.5c-.3-.3-.7.3-.3.6s2.9,2.1,3.1,3.7.1.3.1.4a2.8,2.8,0,0,1-.1.9,41.7,41.7,0,0,1-2.2,9.9c-1.9-5.1-5.2-9.9-7.8-14.7-.3-.4-.9,0-.6.3,2.6,4.8,5.8,9.5,7.8,14.6a30.9,30.9,0,0,1,1.4,8.5c.1,1.6.2,3.2.2,4.9-1.5-3.9-4.4-6.8-7.4-9.7a1.4,1.4,0,0,1-.2-.6c0-3.3-.2-6.5-1.8-9.4a.3.3,0,0,0-.6.3c1.6,2.8,1.7,5.8,1.7,8.9-2.5-2.4-4.9-4.9-6.3-8a.3.3,0,1,0-.6.3C234.4,217.5,239.5,221,243.2,225.2Z"/><path class="cls-7" d="M401.5,122.2h0c.9-6.6-.5-13.2-2.1-19.7a.7.7,0,0,0-.4,1c1.9,6.1,2.3,12.4,2.5,18.7"/><path class="cls-7" d="M403.5,142.1a73,73,0,0,0-1.8-8.1,71.1,71.1,0,0,0,1.3,11.3,84.6,84.6,0,0,1,1.6,14,55.4,55.4,0,0,0,.3-7.1,57.1,57.1,0,0,0-1.4-10.1"/><path class="cls-7" d="M373.7,227.8a12.9,12.9,0,0,0,2.1-.7c5.9-2.2,12.6.8,18.8-.2,2.3-.3,4.6-1.2,6.9-1.7a32.3,32.3,0,0,1,7.6-.3l1.2,4.6c.4,1.5.9,3,1.3,4.5h-.5c-1.3.1-3.2,2.4-4.2,3.2l-2.5,2.1h2.7l3.4-3a6.7,6.7,0,0,0,1.4-1.5c.5,1.6,1,3.2,1.6,4.8h.3c-.3-2,0-4.1-.5-6s-2.8-5.8-4.1-8.8h1.5c.4-.5-.4-1-1-1.1a27.5,27.5,0,0,0-8.1-.3c-3.6.6-6.9,2.6-10.5,2.5a30,30,0,0,1-5.1-.8,45.6,45.6,0,0,0-7.4-.1,12.7,12.7,0,0,0-3.4.4c-1.1.3-2.1.9-3.2,1.2-3.8,1.2-6.8-1-10.5-1.3C364.3,228,370.4,228.5,373.7,227.8Z"/><path class="cls-7" d="M377.4,126.8a9.4,9.4,0,0,0,2.8,1.5,32.6,32.6,0,0,1,7.9,5.4l2,1.7c1.3.6,2.9.6,4.3,1s5.2,3,7.9,2.4l-8.9-3.4-1.5-.7a12.2,12.2,0,0,1-1.7-1.5c-3.1-2.7-7.3-3.9-10.9-6a3.8,3.8,0,0,1-1.6-1.2,5.9,5.9,0,0,1-.6-1.4,46,46,0,0,0-10.3-16.4c4.2,4.6,5.9,10.8,8.9,16.2A9.6,9.6,0,0,0,377.4,126.8Z"/><path class="cls-7" d="M401.4,101.2c.1-1.5.2-3,.4-4.5s-.3-3.1-.2-4.7.5-2.4.5-3.6a13.3,13.3,0,0,1,0-2,11.8,11.8,0,0,1,1.2-3.6c.8-2,1.3-4.1,2-6.2a36.5,36.5,0,0,0,1.8-5.6,22.8,22.8,0,0,1-1.5,3.6c-1,2.1-1.8,4.3-2.6,6.5a71,71,0,0,0-3.5,21.5,7,7,0,0,0,.7,3.8C401.1,104.9,401.2,103,401.4,101.2Z"/><path class="cls-7" d="M404.7,104.9a26.8,26.8,0,0,0-3.5,7.7l3.9-6.2a94.2,94.2,0,0,0,4.9-8.8c.6-1.1,1-2.2,1.7-3.3a32.7,32.7,0,0,1,5.5-6.3l1.5-1.4a22.9,22.9,0,0,0,4.2-6.1c-1.6,1.9-3.2,3.8-4.9,5.6a7.1,7.1,0,0,1-1.5,1.5L414.7,89a14.8,14.8,0,0,0-3.1,3.9,33.7,33.7,0,0,0-3.2,5.9c-.5,1-.8,2.1-1.4,3.1S405.4,103.9,404.7,104.9Z"/><path class="cls-7" d="M422.2,121.6c-1.7,1.5-2.8,3.5-4.3,5.2a24.7,24.7,0,0,1-4.2,3.7,14.2,14.2,0,0,0-2.5,2.4,17.1,17.1,0,0,0-1.3,2.3,55.8,55.8,0,0,1-3.9,4.6c-1.2,1.6-2.3,3.5-2,5.5a70.9,70.9,0,0,1,6.1-9.3l1.8-2.4a20.3,20.3,0,0,1,1.8-2.3,10.7,10.7,0,0,1,3.5-2.5,10.1,10.1,0,0,0,1.8-.9,1.7,1.7,0,0,0,.8-1.6v-.5a2.1,2.1,0,0,1,.3-.7,11.1,11.1,0,0,1,2.9-3.2c2-1.4,4.7-1.5,6.5-3.1s1.7-2.8,2.6-4.2,2.7-2.6,3.9-4.1a29.3,29.3,0,0,1,4.2-5,36.3,36.3,0,0,0-4.6,4.1c-1.4,1.7-3,3.3-4.4,5a25.8,25.8,0,0,1-3.8,3.6C425.7,119.4,423.8,120.2,422.2,121.6Z"/><path class="cls-7" d="M430,135.1c-1,.5-1.9,1.2-2.9,1.8s-3,1.4-4.4,2.3-3,2.8-4.7,3.9-2.7,1.3-4,2.1a18.7,18.7,0,0,0-3.3,3l-4.3,4.8a3,3,0,0,0-1,2.2c2.1-2,4-4.1,5.9-6.2a13.4,13.4,0,0,1,3.3-3l1.5-.7c3-1.4,5.4-3.8,8-5.8a6.6,6.6,0,0,1,3.1-1.6c.8,0,1.8.1,2.2-.6a4.7,4.7,0,0,0,.3-.9,1.9,1.9,0,0,1,1-.5,24.3,24.3,0,0,0,9.7-5,50.5,50.5,0,0,0,7.2-8.7c-2.3,2.2-4.2,4.7-6.6,6.8a22.7,22.7,0,0,1-8.5,5.2A25,25,0,0,0,430,135.1Z"/><path class="cls-7" d="M437.3,148.4a6.7,6.7,0,0,0-1.9.5,12.5,12.5,0,0,0-2.4,1.6c-1.5,1-3.3,1.1-5,1.8a21.4,21.4,0,0,0-3.2,2c-6.4,4.7-12.8,9.5-18,15.4-.7.8-1.4,1.9-1,2.9,6.3-5.8,12.6-11.7,19.9-16.2,2.5-1.6,5-2.9,7.4-4.4a20.9,20.9,0,0,1,2.9-1.6,13.8,13.8,0,0,1,2.7-.8c3.2-1,7.9-2.6,10.3-5.1-2.7.8-5.3,1.9-7.9,2.8A27.2,27.2,0,0,1,437.3,148.4Z"/><path class="cls-7" d="M435.5,170.4h-1.3l-.9.5a32.8,32.8,0,0,1-7.1,3.9c-1.9.7-3.9,1.2-5.9,1.8a80.4,80.4,0,0,0-13.2,5.6,3.7,3.7,0,0,0-1.8,1.7.8.8,0,0,1,.7.8c5.1-3.8,11.5-5.2,17.4-7.6s9.3-4.6,14.3-6l4.1-1c5.7-1.7,10.8-5,16.9-4.8-2.9-.1-5.6-.3-8.4.5a42.2,42.2,0,0,0-7.2,3.1A13.5,13.5,0,0,1,435.5,170.4Z"/><path class="cls-7" d="M420.9,190.4l1.4-.3c1.1-.5,1.5-2.1,2.6-2.5h1.5c4.2.1,8-3,12.2-2.8a8.1,8.1,0,0,0,2.2,0l1.5-.8a15.6,15.6,0,0,1,5.9-2.2l2.2-.5a14.1,14.1,0,0,0,5.4-3.2c-1.9,1.6-4.5,2.2-7,2.5a15.9,15.9,0,0,0-3,.6,11.9,11.9,0,0,0-2.5,1.3c-3.9,1.8-8.6,1.1-12.6,2.9a5.6,5.6,0,0,1-2.1.9c-1,.2-2,.1-3,.2a8.3,8.3,0,0,0-3.1,1.6,58,58,0,0,1-7.8,4.1c-1.8.8-6,1.5-7.1,3.2,3.3,0,7.4-2,10.3-3.6A11.4,11.4,0,0,1,420.9,190.4Z"/><path class="cls-7" d="M408,208.9l7.7-.8,2.9-.3,3.3-.4,3.5-.4,10.6-1.2a38.6,38.6,0,0,0,4.9-.6,26.2,26.2,0,0,0,4-1.1c1.6-.7,3.1-1.7,4.7-2.3s5.4-.5,8.1-1.1a15.6,15.6,0,0,0-5.7-.6,27.5,27.5,0,0,0-4.1,1.1l-8.8,2.9c-2,.7-4.2,1.4-6.3.8a5.7,5.7,0,0,0-1.8-.3,6.4,6.4,0,0,0-1.8.6c-1.9.9-4.2.3-6.3.7s-4.7,1.7-6.9.7l-.9-.3-.9.2a15.4,15.4,0,0,1-6.7,1.3A11.7,11.7,0,0,0,408,208.9Z"/><path class="cls-7" d="M465.3,218.4c-1.3-.3-2.7-.3-4-.6s-2.1-.7-3.2-1a27.1,27.1,0,0,0-4-.4,45.2,45.2,0,0,0-5.2.2c-4.6.5-9.1,2.8-13.7,2.2l-2.8-.4a16.1,16.1,0,0,0-4.4.1l-12.9,1c-1.2.1-2.8.1-3.8.8.7,1.5,4.4,0,5.7-.2a33,33,0,0,1,7.7-.1,10.5,10.5,0,0,0,2.5.1,10.1,10.1,0,0,0,1.7-.3c3.3-.7,6.7.6,10.1.2a31.1,31.1,0,0,0,4.1-1.1,36.2,36.2,0,0,1,13.5-1.1l4,.7,3.7.6c1.5.3,3.1.6,4.1,1.7A4.1,4.1,0,0,0,465.3,218.4Z"/><path class="cls-7" d="M415.2,230.9l8.3,2.2a19.9,19.9,0,0,1,2.6.9l1.8,1.3,4.9,3.8a17.3,17.3,0,0,0,2.8,1.9,20.4,20.4,0,0,0,3.5,1.1l2.1.8,5,.9a7.6,7.6,0,0,0-2.3-1.7,16.9,16.9,0,0,0-3.4-1,24.5,24.5,0,0,1-9.2-4.4,31,31,0,0,0-4.6-3.5,19.1,19.1,0,0,0-3.6-1.3,42.2,42.2,0,0,1-7.7-2.2c-.4-.2-1.5-1-1.9-.6S414.7,230.8,415.2,230.9Z"/><path class="cls-7" d="M396.5,211c-2.5.3-5,1.2-7.4,1.7a26.1,26.1,0,0,1-8.8.5c-3.5-.4-7-1.5-10.5-1.7-5.2-.3-10.2,1.3-15,3.2a39.4,39.4,0,0,1,17.7-1.6c3.4.5,6.7,1.4,10.1,1.4,5.3-.1,10.3-2.4,15.6-2.4,2.7.1,5.7,1,8.5.7.4,2.9,1,5.7,1.6,8.5-.5-3.7,0-7.5-.6-11.2-.3-1.9-1-3.8-1.5-5.7a44.9,44.9,0,0,1-.9-9.7h.3l-.3-.2c0-1.5-.1-2.9-.2-4.4-.3-5.2.4-10.4,0-15.6-.1-1.5-.3-3-.5-4.5l-.3,11.6c-3.8-.6-6.8-3.7-10.3-5.3s-5-1.6-7.4-2.8-3.1-1.9-4.9-2.2-4.9,1.1-7.4,1.6a20.6,20.6,0,0,1-7,.1,6.5,6.5,0,0,1-2-.4,6.3,6.3,0,0,1-2.3-2,62.6,62.6,0,0,0-7.6-6c2.2,2.3,4.1,4.8,6.5,7a9.3,9.3,0,0,0,2.6,1.8,10.9,10.9,0,0,0,2.6.4l4.9.2a17.9,17.9,0,0,0,4-.2c1.2-.3,2.3-.8,3.5-1s4.7.4,7,1.2a61.9,61.9,0,0,1,8,3.4c3.3,1.7,6.3,4,9.8,5,0,2.4,0,4.8.1,7.2s.1,2.9.2,4.4a33,33,0,0,0-4.3-1.9l-6.9-2.6a24.2,24.2,0,0,0-3.6-1c-1-.2-2.1-.2-3.1-.3-4-.5-7.6-2.8-11.6-3.9a34.7,34.7,0,0,0-10.7-.8,10.1,10.1,0,0,1-3,0l-2.7-.6a31.1,31.1,0,0,0-6.8-1.1c4.4,1.5,9.3,3.2,14.1,2.9,1,0,2.1-.1,3.1,0a10,10,0,0,1,2.9.6l10.2,2.9a25,25,0,0,0,5.4,1.3l3,.5a21.3,21.3,0,0,1,3.5,1.4,63.3,63.3,0,0,0,10.5,3.1,174.2,174.2,0,0,0,2,17.7C404.2,210.8,398.9,210.7,396.5,211Z"/><path class="cls-7" d="M359.7,143.9c2,2.2,3.8,4.5,5.8,6.6a53.6,53.6,0,0,0,7.5,6.8,18.9,18.9,0,0,0,3,1.9,19.9,19.9,0,0,0,4.3,1.5l10.2,2.8,5,1.6c3.3,1.4,6.2,3.5,9.6,4.3a4.5,4.5,0,0,0-1.9-1.4,144,144,0,0,0-14.1-5.8l-3.4-1-4.7-1.4a28.5,28.5,0,0,1-3.1-1.2,18.8,18.8,0,0,1-3.6-2.1c-1.7-1.2-3.5-2.5-5.2-3.9-4.7-4-8.4-9.2-13.4-13a7.3,7.3,0,0,0,.9,1.3C357.5,141.9,358.7,142.9,359.7,143.9Z"/><path class="cls-7" d="M354.5,138.8l1.2.8A1.6,1.6,0,0,0,354.5,138.8Z"/><path class="cls-7" d="M372.8,132c.9,1.4,1.6,3,2.5,4.4a22.7,22.7,0,0,0,6.2,5.3l5.1,3.4a19.6,19.6,0,0,0,3.2,1.7c1,.4,2.1.6,3.1.9a26,26,0,0,1,3.6,1.3l9.1,3.5c-2.6-2.7-7-2.9-10.1-5.1l-1.8-1.2a9.7,9.7,0,0,0-2.4-.1c-2.7-.2-4.6-2.7-6.8-4.3s-7-3.1-8.9-6.2-1.6-5.6-3.7-7.3l-2.5-1.3c-1.7-.9-3-2.7-4.7-3.7a19,19,0,0,0-6.1-2.4C363.6,123.7,369.8,126.9,372.8,132Z"/><path class="cls-7" d="M381.3,105.1c2.3,3.2,6.3,5.3,7.7,9.2.8,2,.8,4.3,1.9,6.1a14.7,14.7,0,0,0,3.1,3l5.4,3.8c1.1.8,2.2,1.7,3.6,1.7a9.4,9.4,0,0,0,.1,2.9c.7-2.2,1.3-4.3,2-6.4a12.7,12.7,0,0,1,1.8-3.9,11,11,0,0,0,.9-1.4,8.3,8.3,0,0,0,.4-1.5c.5-1.9,2.2-3.2,3.3-4.8s1-1.8,1.6-2.6a13.9,13.9,0,0,1,4.3-3.7,13.9,13.9,0,0,0,3.1-2.3,14.6,14.6,0,0,0,2-3.7c1.8-3.6,5.2-6.6,5.5-10.5-.7,2.6-3,5.2-4.4,7.4a31.6,31.6,0,0,1-5.9,7.6c-1.5,1.4-3.4,2.4-4.7,4s-1.5,2.5-2.4,3.6-1.4,1.7-2,2.5a34.5,34.5,0,0,0-2.5,4.1,25.2,25.2,0,0,0-3.1,8.7,25,25,0,0,1-12.2-13.4,12.2,12.2,0,0,0-1.6-3.7,11.1,11.1,0,0,0-2.7-2.6,32.1,32.1,0,0,1-6.7-8c-1.8-2.9-3.1-6-5.2-8.8l5.3,10.5A13.5,13.5,0,0,0,381.3,105.1Z"/><path class="cls-7" d="M383.6,88.1l.9.5c1.5.8,1.8,3.1,3.3,4s1.9.5,2.1,1.4-.2,1,0,1.4.7.6,1,.9.4,1.5.8,2.3,2.5,1.8,3.2,3.2.3,1,.5,1.5a3.8,3.8,0,0,0,1.1,1.4,38.9,38.9,0,0,0,4.8,4.3c-.6-2.6-3.6-4-5-6.3a10.5,10.5,0,0,0-1.3-2.3,11.4,11.4,0,0,0-1.6-1.5c-1.6-1.6-1.9-4.1-3.5-5.8a16,16,0,0,0-1.9-1.6,11.8,11.8,0,0,1-1.8-2.1c-1.2-1.5-2.7-3.1-3.8-4.7a15.5,15.5,0,0,1,.8,2.3A1.5,1.5,0,0,0,383.6,88.1Z"/><path class="cls-7" d="M381.5,83.1l.9,1.6A5.1,5.1,0,0,0,381.5,83.1Z"/><path class="cls-8" d="M766.2,342.4c-16.3-12.7-36.8-25-58.3-36.3s-48-19.7-72.3-28.2-52.6-15.3-79.9-21.2-57-9.2-86.1-12.2l-6.9-.7c-26.2-2.9-48.3-5.8-75.7-5.8,0-.1-.1-.2-.1-.3H374.2c-26.8.5-57.1,2.3-82,4.9-29.1,3-61.9,2.4-89.6,8.4s-46,21.3-71.1,30.1-56.5,12.8-78,24S25.9,334.1,9.6,346.9A106.9,106.9,0,0,1,0,353.4v28.1H801.5C791.3,368.3,781.5,354.4,766.2,342.4Z"/><polygon class="cls-9" points="123 132.4 122 151 132.4 151 136.3 131.1 123 132.4"/><path class="cls-9" d="M174.3,125l5.4,16,9-5.1s-2.5-14.6-4.5-17.6Z"/><path class="cls-10" d="M370.1,303.6c0,5.6-28.7,10.2-64.2,10.2s-64.1-4.6-64.1-10.2,28.7-10.3,64.1-10.3,64.2,4.6,64.2,10.3"/><path class="cls-10" d="M235.3,306.9c0,5.7-28.8,10.3-64.2,10.3S107,312.6,107,306.9s28.7-10.3,64.1-10.3,64.2,4.6,64.2,10.3"/><path class="cls-11" d="M318.2,87.4s-3.7,8.6-7,16.9h0c-2.5,6.1-4.8,12.2-5.4,14.6a70.8,70.8,0,0,1-4.3,12.3l-2.5.4a116.4,116.4,0,0,1-14.9,1.2h-.5a50.2,50.2,0,0,1-15-1.8,39.6,39.6,0,0,1-5.6-2s-.3-1.4-.7-3.6l-.2-.5c-.4-2.3-1.1-5.2-1.7-8.3-.9-5-2.3-14.7-2.8-18.3h0c-.1-.8-.2-1.3-.2-1.3v.7h0v.7h0l-2.1,11.2s-1.5.5-5.7,2.3l-1.1.6a11.9,11.9,0,0,0-2.3,1.6,19.9,19.9,0,0,0-4,4.1h-.2v-.2c-.7-1.5-.9-4.8-.9-8.8,0-2,.1-4.2.3-6.5h0c.3-5.4,1-10.9,1.6-14.7,1.5-8.7,7.5-23.2,7.5-23.2a51.7,51.7,0,0,1,11.5-8l5.5-2.4c4.6-1.9,8.7-3.2,9.9-3.6h4.7l17.4,6.2,1.4.5c5.9,2.3,10.2,5.4,12.1,9.2s5.5,20.6,5.5,20.6"/><path class="cls-9" d="M300.6,57.6c-9.2,2.7-22.8-3.4-22.8-3.4-5.8,1.9-9,1.3-10.6.3,4.6-1.9,8.7-3.2,9.9-3.6h4.7l17.4,6.2,1.4.5"/><path class="cls-9" d="M246,114.1a19.9,19.9,0,0,0-4,4.1h-.2v-.2c-.7-1.5-.9-4.8-.9-8.8,0-2,.1-4.2.3-6.5a28.1,28.1,0,0,0,4.9,11.3"/><path class="cls-9" d="M268.6,131.1a39.6,39.6,0,0,1-5.6-2s-.3-1.4-.7-3.6l-.2-.5c-.4-2.3-1.1-5.2-1.6-8.3-1-5-2.4-14.7-2.9-18.3h0c-.1-.8-.2-1.3-.2-1.3v.7a33,33,0,0,0-.5-6.2c.2.6,2.9,9.4,4.5,16.9s6.2,19.6,7.3,22.7"/><path class="cls-9" d="M311.6,91.9l-.4,12.4h0c-2.5,6.1-4.8,12.2-5.4,14.6a70.8,70.8,0,0,1-4.3,12.3l-2.5.4c.9-6.4,3.1-21,5.5-32.1,3.2-14.7,5.3-19.8,5.3-19.8s2.2,11.9,1.8,12.1"/><path class="cls-12" d="M334.9,160.8c-1.1,1-4.6-2.2-4.8-2.4s5,8.9,3.7,9.4-4.2-4.9-4.4-5.2,1.6,6.1.6,6.4-2.5-5.6-2.9-6.9a22.4,22.4,0,0,1,.5,2.7h0c.2,1.5.2,3-.5,3s-3.6-10.1-3.6-10.1a87.5,87.5,0,0,1-9.9-12.8c-5.1-7.7-9.1-19.6-9.1-21.3l.7-3.3s.6-2.6,4.5-4.5l.5-.2c4.4-1.9,6.6-1.9,6.6-1.9s2.6,10.2,4.9,17.3,8.4,23.8,8.4,23.8,6,4.8,4.8,6"/><path class="cls-13" d="M304.4,45.6a24.2,24.2,0,0,1-3.8,5.4c-3.4,3.4-7.1,3.9-12,2.3a15.1,15.1,0,0,1-2.2-1.1l-.7-.6A13.6,13.6,0,0,1,283,48a33.2,33.2,0,0,1-2.6-6.6c-.5-1.9-.7-3.2-.7-3.2-6.1-.5-5.4-12-3-12.8s3.6,3.9,3.6,3.9a16,16,0,0,1,6.5-11c3.7-2.7,8-3.7,10-3.6s8.9-.6,10.3,4.6,2,18.3-2.7,26.3"/><g class="cls-14"><g class="cls-15"><path class="cls-16" d="M286.8,18.3c-2.4,3.8-5.6,8.8-4.3,20.6.6,6.4,2,10.3,3.2,12.7A13.6,13.6,0,0,1,283,48a33.2,33.2,0,0,1-2.6-6.6c-.5-1.9-.7-3.2-.7-3.2-6.1-.5-5.4-12-3-12.8s3.6,3.9,3.6,3.9a16,16,0,0,1,6.5-11"/></g></g><path class="cls-17" d="M339.8,295.4l-2.7,1.5-.4.2h-.2s-24.9-41.8-28.8-52.6-24.2-66-25.5-68.7v0c-.4,4.4-6.9,64.2-7.5,73.7s-4.3,44.9-4.3,44.9l-3-.6-1.8-6.1c-.3-1.3-.7-2.8-1.2-4.4-2.8-10.3-6.8-25.6-7.9-34.4-2.3-17.3-3.9-78.1-2-90.7.7-4.3,1.8-8.8,2.9-13l.2-.5c1.2-4.2,2.5-8.1,3.6-11,0-.1.1-.3.1-.4.9-2.1,1.5-3.7,1.8-4.3a42.8,42.8,0,0,0,8.4,2.7h.4a55.3,55.3,0,0,0,11.5,1h.7c4.9-.1,8.7-.4,11.4-.7h.4c4-.5,5.7-.9,5.7-.9s.5,2,1.3,5.5c0,.2.1.3.1.5l2.3,9.6a6.4,6.4,0,0,1,.2.7c5.6,23.4,15.5,64.6,16.9,72,1.9,10.4,17.5,75.8,17.5,75.8"/><path class="cls-18" d="M280.8,42.7c0,.1.1.1.1.2s-.1-.1-.1-.2"/><path class="cls-18" d="M281.6,45.1l.2.3-.2-.3"/><path class="cls-18" d="M281.3,44.3a.4.4,0,0,1,.1.3.4.4,0,0,0-.1-.3"/><path class="cls-18" d="M282,45.9c0,.1.1.2.1.4s-.1-.3-.1-.4"/><path class="cls-19" d="M315.5,32.6a88.5,88.5,0,0,1-2.3,13.3c-.9,3.4-2.1,6.2-3.7,7.1-3.6,2.2-7,1.1-8.9-2h0a28,28,0,0,0,3.3-4.4,9.3,9.3,0,0,0,.5-1c4.7-8,4.2-21.1,2.7-26.3s-7.7-4.5-10.3-4.6-12.6,2.4-15.7,11.2h0a33.8,33.8,0,0,0-.8,3.4s-1.2-4.6-3.6-3.9-3.1,12.3,3,12.8c0,0,.2,1.3.7,3.2h0s-1.1,2.9-2.1,5.8a9.1,9.1,0,0,1-7.9.8c-2.7-.9-8.1-5.6-7.3-13.2s9.1-17.7,12.7-21.7a48.4,48.4,0,0,1,6.9-6.3c3.2-2.5,6.7-4.4,9.4-4.3,5,.1,8.7,5.2,8.7,5.2s6.2-2.7,10,1.8,5.5,16.3,4.7,23.1"/><path class="cls-18" d="M281.1,43.5v0"/><path class="cls-18" d="M280.6,42.1h0"/><path class="cls-18" d="M282.4,46.8c0,.1.1.2.1.3s-.1-.2-.1-.3"/><path class="cls-20" d="M280.6,42.1a1.4,1.4,0,0,1,.2.6,1.4,1.4,0,0,0-.2-.6"/><path class="cls-20" d="M280.9,42.9a1.4,1.4,0,0,0,.2.6,1.4,1.4,0,0,1-.2-.6"/><path class="cls-20" d="M280.4,41.4h0a1.9,1.9,0,0,1,.2.7,1.9,1.9,0,0,0-.2-.7"/><path class="cls-20" d="M282.1,46.3l.3.5-.3-.5"/><path class="cls-20" d="M282.5,47.1l.5.9-.5-.9"/><path class="cls-20" d="M281.4,44.6a.8.8,0,0,1,.2.5.8.8,0,0,0-.2-.5"/><path class="cls-20" d="M281.8,45.4c0,.2.1.3.2.5s-.2-.3-.2-.5"/><path class="cls-20" d="M281.1,43.7a1.4,1.4,0,0,1,.2.6,1.4,1.4,0,0,0-.2-.6"/><path class="cls-13" d="M286.4,52.2c-.1.7-.4,1.6-.6,2.7-1.4,5.1-3.6,13.3-4.4,12.8s-4.8-13.5-4.7-15.3a28.4,28.4,0,0,1,1.1-3.8c.2-.4.3-.9.5-1.4,1-2.9,2.1-5.8,2.1-5.8h0a1.9,1.9,0,0,1,.2.7h0a1.4,1.4,0,0,1,.2.6c0,.1.1.1.1.2a1.4,1.4,0,0,0,.2.6v.2a1.4,1.4,0,0,1,.2.6.4.4,0,0,1,.1.3.8.8,0,0,1,.2.5l.2.3c0,.2.1.3.2.5s.1.2.1.4l.3.5c0,.1.1.2.1.3l.5.9a14,14,0,0,0,3.4,4.2"/><path class="cls-21" d="M295.3,26.9c1.6-.5,1.9-2.1-1.3-3s-5-.7-6.2,0a14.8,14.8,0,0,1,3.8,1.3c1.2.8,3.1,1.8,3.7,1.7"/><path class="cls-21" d="M302.1,28.8c-.6-.1-.3-1.4,1.4-1.6a5.1,5.1,0,0,1,4.7,1.6v.8a28.6,28.6,0,0,1-6.1-.8"/><path class="cls-22" d="M267.3,293.9s-4,5.6-4.6,8.1h13.1l-5.5-7.5Z"/><path class="cls-22" d="M336.5,297.2l-1.3,4.8H354s-8.4-4.3-14.2-6.6Z"/><polygon class="cls-23" points="323.9 86.1 317.7 111.3 315.9 119 299.8 121.1 299.4 121.2 296.5 121.5 296.4 121.5 296 121.5 280.2 120.6 279.7 110.8 278.4 86.1 301.8 93.4 302.1 93.4 302.6 93.5 307.1 94 307.2 94 307.7 93.8 323.9 86.1"/><path class="cls-24" d="M283.2,87.6s12.3-4,21.8,4.3c0,0,6.7-4.1,10.9-4.8s5.9,0,5.9,0L307.1,94l-5.3-.6Z"/><path class="cls-21" d="M299.3,42.5h0c-.1,0-3.2,1-4.5-4-.1-.2,0-.3.1-.3h.3c1.1,4,3.4,3.5,4,3.7a32.4,32.4,0,0,1-.3-4,33.5,33.5,0,0,1,1-7.5c.1-.1.2-.2.3-.1s.2.1.2.3a25.3,25.3,0,0,0-1,7.3c-.1,4.4.1,4.3.1,4.3a.2.2,0,0,1-.2.2"/><path class="cls-21" d="M277.2,27.5c-.1-.2-.2-.2-.3-.1s-.2.2-.1.3a23.9,23.9,0,0,1,1,2.4,2.9,2.9,0,0,0-1.2.9,1.1,1.1,0,0,0-.1,1,1.6,1.6,0,0,0,1.7.9h.4a7.1,7.1,0,0,1,.2,2c-.1.2,0,.3.2.3h0a.2.2,0,0,0,.2-.2C279.5,32,277.3,27.6,277.2,27.5Zm-.3,4.3a1.3,1.3,0,0,1,.1-.6c.2-.4.8-.6,1-.7l.6,2C278.1,32.5,277.2,32.5,276.9,31.8Z"/><path class="cls-25" d="M288.8,42.7s5.6,4.7,9,5.3a6.2,6.2,0,0,1-5.7.7c-3.6-1.1-3.3-6-3.3-6"/><path class="cls-21" d="M293.3,31.4c-.4,1.5-1.1,2.6-1.6,2.5s-.7-1.4-.4-2.9,1-2.7,1.6-2.5.7,1.4.4,2.9"/><path class="cls-21" d="M304.6,34.7c-.3,1.5-1,2.6-1.6,2.5s-.7-1.5-.4-3,1.1-2.6,1.6-2.5.8,1.4.4,3"/><path class="cls-13" d="M292,120.3c.5-.1,5.5-1.3,5.8,0s-4.4,2.1-4.9,2.3c2-.2,2.9,0,3.1.4s-1.1,1.1-3.2,1.6c-3.7.8-9.2-.9-9.2-.9-25.4,6.3-41.8-5.4-41.8-5.4a14.3,14.3,0,0,1,3.9-4.1,25,25,0,0,1,2.4-1.6c4.8-2.8,7-3,7-3s8.6,3.5,13.5,5,13.2,1.2,13.2,1.2,5.1-4.5,6-4-2.1,4.1-2.1,4.1l2.4-.6s7.4-3.6,7.7-2.9-4.2,4.5-4.2,4.5,7.3-1.4,7.6-.4-6.7,3.6-7.2,3.8"/><path class="cls-16" d="M286.4,52.2c-.1.7-.4,1.6-.6,2.7a13.4,13.4,0,0,1-8-6.3c.2-.4.3-.9.5-1.4,1-2.9,2.1-5.8,2.1-5.8h0a1.9,1.9,0,0,1,.2.7h0a1.4,1.4,0,0,1,.2.6c0,.1.1.1.1.2a1.4,1.4,0,0,0,.2.6v.2a1.4,1.4,0,0,1,.2.6.4.4,0,0,1,.1.3.8.8,0,0,1,.2.5l.2.3c0,.2.1.3.2.5s.1.2.1.4l.3.5c0,.1.1.2.1.3l.5.9a14,14,0,0,0,3.4,4.2"/><path class="cls-21" d="M281.1,25.9h0a33.8,33.8,0,0,0-.8,3.4s-1.2-4.6-3.6-3.9-3.1,12.3,3,12.8c0,0,.2,1.3.7,3.2h0s-1.1,2.9-2.1,5.8a9.1,9.1,0,0,1-7.9.8c-2.7-.9-8.1-5.6-7.3-13.2s9.1-17.7,12.7-21.7a48.4,48.4,0,0,1,6.9-6.3c-3.3,6.4-2.2,13.7-1.6,19.1"/><path class="cls-21" d="M313.2,45.9c-.9,3.4-2.1,6.2-3.7,7.1-3.6,2.2-7,1.1-8.9-2h0a28,28,0,0,0,3.3-4.4,20.4,20.4,0,0,0,9.3-.7"/><path class="cls-13" d="M142.4,296.6s1.1-4.7,1.2-6.1,10-.7,10-.7-.2,6.5-.2,7.1-11-.3-11-.3"/><path class="cls-21" d="M141.8,294.2s-9.8,8-12.7,9.4-4.4,2.7-6.5,2.8-2,2.7-1.4,3.8,4.8.8,8.3.6,9.3-.7,11.9-1.6,4.6-2,5.2-.4a15.5,15.5,0,0,0,11.2-.7s-.3-8-.9-10.3a4.1,4.1,0,0,0-3.1-2.8s-8.4,2-12-.8"/><path class="cls-13" d="M190.4,288.9s1.9,5.8,1.9,7.2,8.8-1.8,8.8-1.8l1.2-2.2-1.6-6.1Z"/><path class="cls-21" d="M191.3,294.2a19.5,19.5,0,0,0-1.3,5.7c0,2.4.2,6.4.6,7.1s4.3,1.8,7.7,1.6,6-.8,6.5-1.3.1-2,1.3-1.8.5,2,3.7,1.9,14.2.1,17.6-1.4c0,0,1.3-.7,1.3-1.4s.1-2.4-.6-3-6.2-.8-10.4-3.4-14.8-6.4-15.4-6.6-5.2,4.4-11,2.6"/><path class="cls-11" d="M131,131.9s-4,9-3.1,10.6,5.1,5.4,5.1,5.4-8.8.8-10.8.1c0,0,1.1,66,18.4,142.1,0,0,9.8,4,15.7.5,0,0,1.4-113.1,2.1-121.9,0,0,14.6,77.4,27.9,121.2,0,0,11.8,3.9,17.9-3.6,0,0-7.3-75-10.5-109.7s-5.8-44.6-5.8-44.6-2.5,5.7-7.5,6.8c0,0,2.6-4.8,2.5-6.2s-4-8.4-4-8.4Z"/><path class="cls-13" d="M159.5,45.4s-4.2-8.4-5.6-11.5-13.4,7.6-13.4,7.6l.8,8.8,8.5,1.2Z"/><path class="cls-13" d="M155.3,26.1s1.9,11.7-5.5,16a14.6,14.6,0,0,1-12.5,1.1c-1.9-.6-4.8-2.7-7-6.5a53.3,53.3,0,0,1-3.7-7.8,11.9,11.9,0,0,1-3.5-3.1c-1.6-2-1.4-4,.3-4.2a6.4,6.4,0,0,1,3.6,1.1V15l17.5-6.9,7.8,1.5,1.1,8.9"/><path class="cls-26" d="M148.2,9a9.8,9.8,0,0,0,1.9,5,13.3,13.3,0,0,0,4,4.2l1.3,10a2.5,2.5,0,0,0,2.2-1.3c.6-1.4,1.7-4.1,1.6-5.8S156.3,6,155.4,3.3,147.2,0,147.2,0s.2,7.9,1,9"/><path class="cls-27" d="M145.1,21.6a15.6,15.6,0,0,1,3.5-.3c.7.3.9-1.1.7-1.6s-2.2-1-4-.8-3.3.1-2.9,1.9,1.9.8,2.7.8"/><path class="cls-27" d="M128.9,25.8a12.7,12.7,0,0,1,3.6-1c1.6-.1,1.3-2.2,1-2.6s-3.4.1-4.9.7-1.3.4-1,1.8,1,1.3,1.3,1.1"/><path class="cls-26" d="M147.2,0s-27.4,2.9-24.5,17.5c.5,2.2.6,3.8,4.3,5.2s7.5-1.5,10.6-3.8,2.4-2.3,5.3-3.5,5.4-2.6,5.5-4.9-.2-9.2-1.2-10.5"/><path class="cls-25" d="M137.9,35.7a10.6,10.6,0,0,0,8.6-4.3s1.1-1,1,.3-.5,4-4.3,5.8c-2.2,1.1-5-.1-5.3-1.8"/><path class="cls-28" d="M158.2,42.9l-1.1-2.6s10.8-2.9,29.6,8.6,29.5,55.3,29.6,69.3-.3,18.3-1.7,19.7-7.9,5.4-11.6,3.2c0,0-7.7-13.3-9-19.8s-1-11.8-3.8-17.3-7.5-17.8-7.5-17.8,6,20.7,6.4,24.3,2.5,10.5-9.8,16.5-36.3,11.8-50.6,7.4-13.8-8.5-13.9-11.5-.4-7.4-.4-7.4a11,11,0,0,1-11.7,3.4c-7.3-2.3-15.5-18.7-9.6-34.2S118.4,49.6,138.9,45h1.8l.2,1.6s7.7,5.7,17.3-3.8"/><path class="cls-29" d="M128,51.7s-16.1-12.4-16.6-11.6-2.1,6.9-2.1,6.9l17.1,6.2Z"/><polygon class="cls-30" points="134.5 83.9 128 51.7 105.3 43.4 113.3 76.3 134.5 83.9"/><polygon class="cls-29" points="134.5 83.9 128 51.7 151 38.6 158.3 70.7 134.5 83.9"/><polygon class="cls-31" points="135 55.8 136.7 63.5 149.1 57.1 147.2 48.6 135 55.8"/><path class="cls-13" d="M125.6,81.8l-.5-2.1s.4-4.6-.7-7.7-3.5-6.2-4.1-8.4-1.6-2.7-2.5-2.6-1.5-.1-2.3.3-1.8,3.5-2.2,6.4,1.9,9.3,1.9,9.3l-1.9-.7a8.1,8.1,0,0,0,2.3,3.2,26,26,0,0,0,2.8,1.9Z"/><path class="cls-13" d="M208.1,147.1l-.7.6s.9,8,3.2,10.7a39.7,39.7,0,0,1,6.6,10.9c.7,2.5,2,1.5,2.4.8s.2-3.8.2-4.4,1.9-1.9,2.4-3.5a20.3,20.3,0,0,0,.7-6.2c.1-2.8-2.3-6.9-4.4-8.6a11.9,11.9,0,0,1-3-3.5Z"/><path class="cls-11" d="M126.2,81.5c-1.1-1.4-7.1-1.7-8.5-.8s-2.3,2.7-3,3.7l-.5.2H114c-3.8,1-8.2,4-13,8.7a.6.6,0,0,0,0,.8.5.5,0,0,0,.7,0c4.7-4.7,8.9-7.5,12.6-8.5h.2c7.5-2.3,10.1,2.4,10.5,3.2-.7,17.9-10.8,26.2-10.9,26.3a.5.5,0,0,0-.1.7.4.4,0,0,0,.4.2h.3c.1-.1,10.6-8.7,11.4-27.2v-.5C127.3,85.9,126.2,81.5,126.2,81.5Z"/><path class="cls-11" d="M214,137.2l-9.2,3.4s.4,5.6,2.3,7.9c0,0,6.5.3,9.5-2.9C216.6,145.6,215.1,139.3,214,137.2Z"/><path class="cls-11" d="M116.2,60.9c-.2,0-.4.1-.4.3a50.9,50.9,0,0,0-1,5.8,29.9,29.9,0,0,0,.8,4.4l.4.2h.1c.2-.1.3-.3.2-.4a26,26,0,0,1-.8-4.2c.1-1.4.9-5.7.9-5.7S116.4,60.9,116.2,60.9Z"/><path class="cls-11" d="M117.7,66.7c-.2-2.6-.2-5.5-.2-5.5s-.1-.4-.3-.4-.3.2-.4.4,0,2.9.2,5.6a10.2,10.2,0,0,0,1.1,4.2l.3.2a.1.1,0,0,0,.1-.1c.2-.1.3-.3.2-.4A10.3,10.3,0,0,1,117.7,66.7Z"/><path class="cls-11" d="M120.9,70.3a30.5,30.5,0,0,1-1.3-4.7,6.6,6.6,0,0,1-.1-1.5,9.5,9.5,0,0,0-.5-2.9.4.4,0,0,0-.6.4,7.8,7.8,0,0,1,.4,2.6,7.1,7.1,0,0,0,.1,1.5,36.8,36.8,0,0,0,1.3,4.8c.1.2.2.3.4.3h.1A.8.8,0,0,0,120.9,70.3Z"/><path class="cls-13" d="M153.7,17.9s2.5-5.8,5.5-6.2,2.3,6.6.5,8.5a50.6,50.6,0,0,0-3.4,4.3s-.3,1.3-1.4.7l-2.5-3.6.7-4Z"/><path class="cls-26" d="M130.4,28a1.1,1.1,0,0,0,1,1,1.2,1.2,0,0,0,1-1.1,1,1,0,0,0-1.1-1,1,1,0,0,0-.9,1.1"/><path class="cls-26" d="M144.4,24.4a1.1,1.1,0,0,0,2.1-.1,1.1,1.1,0,1,0-2.1.1"/><path class="cls-9" d="M136.3,26.2l.4,6.4a.8.8,0,0,0,.9.7c.9,0,3.5-1,4-1.7s-3.1,1.2-3.8.3-1-6-1-6-.5-.2-.5.3"/><path class="cls-3" d="M98.6,254.1h0l-1.5-2.4c-.6-5.3,2-11.2-1.7-15.7-.9-1.1,4.5,1.2,6,2.6a78.1,78.1,0,0,0-15.3-24.3l-.2-.2a1.2,1.2,0,0,0-.4,1.7l1.2,2.4a1.6,1.6,0,0,0,.3.9l.5.8.8,1.7c1.4,3.4,1.3,7.2,1.5,11l-.7-.3c-4.8-2.3-9.8-4.3-14.4-6.4-1.2-.6-2.4,1.2-1.3,2,9.3,6.5,14.3,16.6,19.5,26.4.6,1.3,1.3,2.5,2,3.8A5.2,5.2,0,0,1,98.6,254.1Z"/></g></g></svg>